<svg width="1339" height="744" viewBox="0 0 1339 744" fill="none" xmlns="http://www.w3.org/2000/svg">
<g filter="url(#filter0_d_60_1251)">
<path d="M292 122C292 110.954 300.954 102 312 102H439C450.046 102 459 110.954 459 122V190C459 201.046 450.046 210 439 210H312C300.954 210 292 201.046 292 190V122Z" fill="white" fill-opacity="0.6" shape-rendering="crispEdges"/>
<path d="M351.5 143C351.5 129.745 362.245 119 375.5 119V119C388.755 119 399.5 129.745 399.5 143V143C399.5 156.255 388.755 167 375.5 167V167C362.245 167 351.5 156.255 351.5 143V143Z" fill="#D1E9FF"/>
<path d="M385.5 140H365.5M365.5 138.8L365.5 147.2C365.5 148.88 365.5 149.72 365.827 150.362C366.115 150.926 366.574 151.385 367.138 151.673C367.78 152 368.62 152 370.3 152H380.7C382.38 152 383.22 152 383.862 151.673C384.426 151.385 384.885 150.926 385.173 150.362C385.5 149.72 385.5 148.88 385.5 147.2V138.8C385.5 137.12 385.5 136.28 385.173 135.638C384.885 135.074 384.426 134.615 383.862 134.327C383.22 134 382.38 134 380.7 134L370.3 134C368.62 134 367.78 134 367.138 134.327C366.574 134.615 366.115 135.074 365.827 135.638C365.5 136.28 365.5 137.12 365.5 138.8Z" stroke="#1570EF" stroke-width="1.66667" stroke-linecap="round" stroke-linejoin="round"/>
<path d="M375.5 163C364.454 163 355.5 154.046 355.5 143H347.5C347.5 158.464 360.036 171 375.5 171V163ZM395.5 143C395.5 154.046 386.546 163 375.5 163V171C390.964 171 403.5 158.464 403.5 143H395.5ZM375.5 123C386.546 123 395.5 131.954 395.5 143H403.5C403.5 127.536 390.964 115 375.5 115V123ZM375.5 115C360.036 115 347.5 127.536 347.5 143H355.5C355.5 131.954 364.454 123 375.5 123V115Z" fill="#EFF8FF"/>
<text fill="#175CD3" xml:space="preserve" style="white-space: pre" font-family="Product Sans" font-size="12" font-weight="bold" letter-spacing="0em"><tspan x="344.281" y="190.242">BROWSER1</tspan></text>
<path d="M312 103H439V101H312V103ZM458 122V190H460V122H458ZM439 209H312V211H439V209ZM293 190V122H291V190H293ZM312 209C301.507 209 293 200.493 293 190H291C291 201.598 300.402 211 312 211V209ZM458 190C458 200.493 449.493 209 439 209V211C450.598 211 460 201.598 460 190H458ZM439 103C449.493 103 458 111.507 458 122H460C460 110.402 450.598 101 439 101V103ZM312 101C300.402 101 291 110.402 291 122H293C293 111.507 301.507 103 312 103V101Z" fill="black" fill-opacity="0.1"/>
</g>
<g filter="url(#filter1_d_60_1251)">
<path d="M292 432C292 420.954 300.954 412 312 412H441C452.046 412 461 420.954 461 432V500C461 511.046 452.046 520 441 520H312C300.954 520 292 511.046 292 500V432Z" fill="white" fill-opacity="0.6" shape-rendering="crispEdges"/>
<path d="M352.5 453C352.5 439.745 363.245 429 376.5 429V429C389.755 429 400.5 439.745 400.5 453V453C400.5 466.255 389.755 477 376.5 477V477C363.245 477 352.5 466.255 352.5 453V453Z" fill="#D1E9FF"/>
<path d="M386.5 450H366.5M366.5 448.8L366.5 457.2C366.5 458.88 366.5 459.72 366.827 460.362C367.115 460.926 367.574 461.385 368.138 461.673C368.78 462 369.62 462 371.3 462H381.7C383.38 462 384.22 462 384.862 461.673C385.426 461.385 385.885 460.926 386.173 460.362C386.5 459.72 386.5 458.88 386.5 457.2V448.8C386.5 447.12 386.5 446.28 386.173 445.638C385.885 445.074 385.426 444.615 384.862 444.327C384.22 444 383.38 444 381.7 444L371.3 444C369.62 444 368.78 444 368.138 444.327C367.574 444.615 367.115 445.074 366.827 445.638C366.5 446.28 366.5 447.12 366.5 448.8Z" stroke="#1570EF" stroke-width="1.66667" stroke-linecap="round" stroke-linejoin="round"/>
<path d="M376.5 473C365.454 473 356.5 464.046 356.5 453H348.5C348.5 468.464 361.036 481 376.5 481V473ZM396.5 453C396.5 464.046 387.546 473 376.5 473V481C391.964 481 404.5 468.464 404.5 453H396.5ZM376.5 433C387.546 433 396.5 441.954 396.5 453H404.5C404.5 437.536 391.964 425 376.5 425V433ZM376.5 425C361.036 425 348.5 437.536 348.5 453H356.5C356.5 441.954 365.454 433 376.5 433V425Z" fill="#EFF8FF"/>
<text fill="#175CD3" xml:space="preserve" style="white-space: pre" font-family="Product Sans" font-size="12" font-weight="bold" letter-spacing="0em"><tspan x="344.496" y="500.242">BROWSER2</tspan></text>
<path d="M312 413H441V411H312V413ZM460 432V500H462V432H460ZM441 519H312V521H441V519ZM293 500V432H291V500H293ZM312 519C301.507 519 293 510.493 293 500H291C291 511.598 300.402 521 312 521V519ZM460 500C460 510.493 451.493 519 441 519V521C452.598 521 462 511.598 462 500H460ZM441 413C451.493 413 460 421.507 460 432H462C462 420.402 452.598 411 441 411V413ZM312 411C300.402 411 291 420.402 291 432H293C293 421.507 301.507 413 312 413V411Z" fill="black" fill-opacity="0.1"/>
</g>
<path d="M497.213 399.126C494.175 393.865 495.978 387.137 501.239 384.1L558.397 351.1C563.658 348.062 570.385 349.865 573.423 355.126V355.126C576.461 360.387 574.658 367.115 569.397 370.152L512.239 403.152C506.978 406.19 500.25 404.387 497.213 399.126V399.126Z" fill="#EFF8FF"/>
<path d="M504.574 394.876L510.636 391.376M510.636 391.376L505.855 390.095M510.636 391.376L509.355 396.157" stroke="#175CD3" stroke-width="1.5" stroke-linecap="round" stroke-linejoin="round"/>
<text transform="translate(511.765 380.332) rotate(-30)" fill="#175CD3" xml:space="preserve" style="white-space: pre" font-family="Inter" font-size="12" font-weight="500" letter-spacing="0em"><tspan x="0.447266" y="13.3636">5. GET `/`</tspan></text>
<line x1="479.75" y1="432.879" x2="611.386" y2="356.879" stroke="#F0F0F0"/>
<path d="M515.615 436.999C512.577 431.738 514.38 425.01 519.641 421.973L581.995 385.973C587.256 382.935 593.984 384.738 597.021 389.999V389.999C600.059 395.26 598.256 401.988 592.995 405.025L530.641 441.025C525.38 444.063 518.652 442.26 515.615 436.999V436.999Z" fill="#EFF8FF"/>
<path d="M529.038 429.249L522.976 432.749M522.976 432.749L527.757 434.03M522.976 432.749L524.257 427.968" stroke="#175CD3" stroke-width="1.5" stroke-linecap="round" stroke-linejoin="round"/>
<text transform="translate(530.167 418.205) rotate(-30)" fill="#175CD3" xml:space="preserve" style="white-space: pre" font-family="Inter" font-size="12" font-weight="500" letter-spacing="0em"><tspan x="0.183594" y="13.3636">8. RESP `/`</tspan></text>
<path d="M527.218 466.096C526.113 464.183 526.769 461.736 528.682 460.632L542.538 452.632C544.451 451.527 546.898 452.183 548.002 454.096L556.002 467.952C557.107 469.865 556.451 472.312 554.538 473.416L540.682 481.416C538.769 482.521 536.322 481.865 535.218 479.952L527.218 466.096Z" fill="#D1E9FF"/>
<g clip-path="url(#clip0_60_1251)">
<path d="M540.043 462.31L541.076 464.099C541.216 464.341 541.286 464.463 541.387 464.528C541.475 464.586 541.58 464.614 541.685 464.608C541.805 464.602 541.926 464.532 542.169 464.392L543.957 463.359M543.592 466.457L540.128 468.457M544.592 468.189L541.128 470.189M539.994 466.225L539.128 466.725M539.976 462.194L537.724 463.494C536.997 463.914 536.633 464.124 536.437 464.426C536.264 464.691 536.18 465.005 536.197 465.321C536.216 465.681 536.426 466.045 536.846 466.772L539.446 471.275C539.866 472.003 540.076 472.367 540.378 472.563C540.644 472.735 540.957 472.819 541.273 472.803C541.633 472.784 541.997 472.574 542.724 472.154L545.496 470.554C546.223 470.134 546.587 469.924 546.783 469.622C546.956 469.356 547.04 469.043 547.023 468.726C547.004 468.367 546.794 468.003 546.374 467.275L544.074 463.292L539.976 462.194Z" stroke="#1570EF" stroke-linecap="round" stroke-linejoin="round"/>
</g>
<text transform="translate(556.529 446.864) rotate(-30)" fill="#1570EF" xml:space="preserve" style="white-space: pre" font-family="Inter" font-size="14" font-weight="500" letter-spacing="0em"><tspan x="0.0888672" y="15.0909">index.html</tspan></text>
<path d="M544.079 151.026C547.116 145.765 553.844 143.962 559.105 147L614.531 179C619.792 182.038 621.595 188.765 618.557 194.026V194.026C615.519 199.287 608.792 201.09 603.531 198.053L548.105 166.053C542.844 163.015 541.041 156.287 544.079 151.026V151.026Z" fill="#ECFDF3"/>
<path d="M551.44 155.276L557.502 158.776M557.502 158.776L556.221 153.995M557.502 158.776L552.721 160.057" stroke="#027A48" stroke-width="1.5" stroke-linecap="round" stroke-linejoin="round"/>
<text transform="translate(567.631 154.232) rotate(30)" fill="#027A48" xml:space="preserve" style="white-space: pre" font-family="Inter" font-size="12" font-weight="500" letter-spacing="0em"><tspan x="0.425781" y="13.3636">1. GET `/`</tspan></text>
<line x1="505.25" y1="152.28" x2="636.886" y2="228.28" stroke="#F0F0F0"/>
<path d="M519.615 185.399C522.652 180.138 529.38 178.335 534.641 181.373L596.995 217.373C602.256 220.411 604.059 227.138 601.021 232.399V232.399C597.984 237.661 591.256 239.463 585.995 236.426L523.641 200.426C518.38 197.388 516.577 190.661 519.615 185.399V185.399Z" fill="#ECFDF3"/>
<path d="M533.038 193.149L526.976 189.649M526.976 189.649L528.257 194.43M526.976 189.649L531.757 188.368" stroke="#027A48" stroke-width="1.5" stroke-linecap="round" stroke-linejoin="round"/>
<text transform="translate(543.167 188.605) rotate(30)" fill="#027A48" xml:space="preserve" style="white-space: pre" font-family="Inter" font-size="12" font-weight="500" letter-spacing="0em"><tspan x="0.0839844" y="13.3636">4. RESP `/`</tspan></text>
<path d="M495.933 216.864C497.038 214.951 499.484 214.295 501.397 215.4L515.254 223.4C517.167 224.504 517.822 226.951 516.718 228.864L508.718 242.72C507.613 244.634 505.167 245.289 503.254 244.185L489.397 236.185C487.484 235.08 486.829 232.634 487.933 230.72L495.933 216.864Z" fill="#D1E9FF"/>
<g clip-path="url(#clip1_60_1251)">
<path d="M505.624 226.079L504.592 227.867C504.452 228.11 504.382 228.231 504.375 228.351C504.37 228.456 504.398 228.561 504.455 228.649C504.521 228.75 504.642 228.82 504.884 228.96L506.673 229.993M503.808 231.225L500.344 229.225M502.808 232.957L499.344 230.957M502.21 227.993L501.344 227.493M505.692 225.962L503.44 224.662C502.712 224.242 502.349 224.032 501.989 224.013C501.673 223.996 501.359 224.08 501.094 224.253C500.792 224.449 500.581 224.813 500.161 225.54L497.561 230.044C497.141 230.771 496.931 231.135 496.913 231.495C496.896 231.811 496.98 232.124 497.152 232.39C497.349 232.692 497.712 232.902 498.44 233.322L501.211 234.922C501.939 235.342 502.302 235.552 502.662 235.571C502.978 235.588 503.292 235.504 503.558 235.331C503.86 235.135 504.07 234.771 504.49 234.044L506.79 230.06L505.692 225.962Z" stroke="#1570EF" stroke-linecap="round" stroke-linejoin="round"/>
</g>
<text transform="translate(527.244 232.632) rotate(30)" fill="#1570EF" xml:space="preserve" style="white-space: pre" font-family="Inter" font-size="14" font-weight="500" letter-spacing="0em"><tspan x="0.0888672" y="15.0909">index.html</tspan></text>
<g filter="url(#filter2_d_60_1251)">
<path d="M653 267C653 255.954 661.954 247 673 247H836C847.046 247 856 255.954 856 267V393C856 404.046 847.046 413 836 413H673C661.954 413 653 404.046 653 393V267Z" fill="white" fill-opacity="0.6" shape-rendering="crispEdges"/>
<path d="M730.5 317C730.5 303.745 741.245 293 754.5 293V293C767.755 293 778.5 303.745 778.5 317V317C778.5 330.255 767.755 341 754.5 341V341C741.245 341 730.5 330.255 730.5 317V317Z" fill="#D1E9FF"/>
<path d="M761.5 314C761.5 317.866 758.366 321 754.5 321M761.5 314C761.5 310.134 758.366 307 754.5 307M761.5 314H747.5M754.5 321C750.634 321 747.5 317.866 747.5 314M754.5 321C756.251 319.083 757.247 316.596 757.301 314C757.247 311.404 756.251 308.917 754.5 307M754.5 321C752.749 319.083 751.755 316.596 751.701 314C751.755 311.404 752.749 308.917 754.5 307M754.5 321V323M747.5 314C747.5 310.134 750.634 307 754.5 307M756.5 325C756.5 326.105 755.605 327 754.5 327C753.395 327 752.5 326.105 752.5 325M756.5 325C756.5 323.895 755.605 323 754.5 323M756.5 325H763.5M752.5 325C752.5 323.895 753.395 323 754.5 323M752.5 325H745.5" stroke="#1570EF" stroke-width="1.66667" stroke-linecap="round" stroke-linejoin="round"/>
<path d="M754.5 337C743.454 337 734.5 328.046 734.5 317H726.5C726.5 332.464 739.036 345 754.5 345V337ZM774.5 317C774.5 328.046 765.546 337 754.5 337V345C769.964 345 782.5 332.464 782.5 317H774.5ZM754.5 297C765.546 297 774.5 305.954 774.5 317H782.5C782.5 301.536 769.964 289 754.5 289V297ZM754.5 289C739.036 289 726.5 301.536 726.5 317H734.5C734.5 305.954 743.454 297 754.5 297V289Z" fill="#EFF8FF"/>
<text fill="#175CD3" xml:space="preserve" style="white-space: pre" font-family="Product Sans" font-size="12" font-weight="bold" letter-spacing="0em"><tspan x="705.258" y="364.242">LOAD BALANCER</tspan></text>
<path d="M673 248H836V246H673V248ZM855 267V393H857V267H855ZM836 412H673V414H836V412ZM654 393V267H652V393H654ZM673 412C662.507 412 654 403.493 654 393H652C652 404.598 661.402 414 673 414V412ZM855 393C855 403.493 846.493 412 836 412V414C847.598 414 857 404.598 857 393H855ZM836 248C846.493 248 855 256.507 855 267H857C857 255.402 847.598 246 836 246V248ZM673 246C661.402 246 652 255.402 652 267H654C654 256.507 662.507 248 673 248V246Z" fill="black" fill-opacity="0.1"/>
</g>
<path d="M916 263C916 256.925 920.925 252 927 252H993C999.075 252 1004 256.925 1004 263V263C1004 269.075 999.075 274 993 274H927C920.925 274 916 269.075 916 263V263Z" fill="#ECFDF3"/>
<path d="M924.5 263H931.5M931.5 263L928 259.5M931.5 263L928 266.5" stroke="#027A48" stroke-width="1.5" stroke-linecap="round" stroke-linejoin="round"/>
<text fill="#027A48" xml:space="preserve" style="white-space: pre" font-family="Inter" font-size="12" font-weight="500" letter-spacing="0em"><tspan x="938.33" y="267.364">2. GET `/`</tspan></text>
<line x1="884" y1="283.5" x2="1036" y2="283.5" stroke="#F0F0F0"/>
<path d="M913 305C913 298.925 917.925 294 924 294H996C1002.08 294 1007 298.925 1007 305V305C1007 311.075 1002.08 316 996 316H924C917.925 316 913 311.075 913 305V305Z" fill="#ECFDF3"/>
<path d="M928.5 305H921.5M921.5 305L925 308.5M921.5 305L925 301.5" stroke="#027A48" stroke-width="1.5" stroke-linecap="round" stroke-linejoin="round"/>
<text fill="#027A48" xml:space="preserve" style="white-space: pre" font-family="Inter" font-size="12" font-weight="500" letter-spacing="0em"><tspan x="935.107" y="309.364">3. RESP `/`</tspan></text>
<path d="M916 355C916 348.925 920.925 344 927 344H993C999.075 344 1004 348.925 1004 355V355C1004 361.075 999.075 366 993 366H927C920.925 366 916 361.075 916 355V355Z" fill="#EFF8FF"/>
<path d="M924.5 355H931.5M931.5 355L928 351.5M931.5 355L928 358.5" stroke="#175CD3" stroke-width="1.5" stroke-linecap="round" stroke-linejoin="round"/>
<text fill="#175CD3" xml:space="preserve" style="white-space: pre" font-family="Inter" font-size="12" font-weight="500" letter-spacing="0em"><tspan x="938.395" y="359.364">6. GET `/`</tspan></text>
<line x1="884" y1="375.5" x2="1036" y2="375.5" stroke="#F0F0F0"/>
<path d="M914 397C914 390.925 918.925 386 925 386H995C1001.08 386 1006 390.925 1006 397V397C1006 403.075 1001.08 408 995 408H925C918.925 408 914 403.075 914 397V397Z" fill="#EFF8FF"/>
<path d="M929.5 397H922.5M922.5 397L926 400.5M922.5 397L926 393.5" stroke="#175CD3" stroke-width="1.5" stroke-linecap="round" stroke-linejoin="round"/>
<text fill="#175CD3" xml:space="preserve" style="white-space: pre" font-family="Inter" font-size="12" font-weight="500" letter-spacing="0em"><tspan x="936.121" y="401.364">7. RESP `/`</tspan></text>
<g filter="url(#filter3_d_60_1251)">
<path d="M1064 267C1064 255.954 1072.95 247 1084 247H1247C1258.05 247 1267 255.954 1267 267V393C1267 404.046 1258.05 413 1247 413H1084C1072.95 413 1064 404.046 1064 393V267Z" fill="white" fill-opacity="0.6" shape-rendering="crispEdges"/>
<path d="M1141.5 317C1141.5 303.745 1152.25 293 1165.5 293V293C1178.75 293 1189.5 303.745 1189.5 317V317C1189.5 330.255 1178.75 341 1165.5 341V341C1152.25 341 1141.5 330.255 1141.5 317V317Z" fill="#D1E9FF"/>
<path d="M1159.5 311H1159.51M1159.5 323H1159.51M1158.7 315H1172.3C1173.42 315 1173.98 315 1174.41 314.782C1174.78 314.59 1175.09 314.284 1175.28 313.908C1175.5 313.48 1175.5 312.92 1175.5 311.8V310.2C1175.5 309.08 1175.5 308.52 1175.28 308.092C1175.09 307.716 1174.78 307.41 1174.41 307.218C1173.98 307 1173.42 307 1172.3 307H1158.7C1157.58 307 1157.02 307 1156.59 307.218C1156.22 307.41 1155.91 307.716 1155.72 308.092C1155.5 308.52 1155.5 309.08 1155.5 310.2V311.8C1155.5 312.92 1155.5 313.48 1155.72 313.908C1155.91 314.284 1156.22 314.59 1156.59 314.782C1157.02 315 1157.58 315 1158.7 315ZM1158.7 327H1172.3C1173.42 327 1173.98 327 1174.41 326.782C1174.78 326.59 1175.09 326.284 1175.28 325.908C1175.5 325.48 1175.5 324.92 1175.5 323.8V322.2C1175.5 321.08 1175.5 320.52 1175.28 320.092C1175.09 319.716 1174.78 319.41 1174.41 319.218C1173.98 319 1173.42 319 1172.3 319H1158.7C1157.58 319 1157.02 319 1156.59 319.218C1156.22 319.41 1155.91 319.716 1155.72 320.092C1155.5 320.52 1155.5 321.08 1155.5 322.2V323.8C1155.5 324.92 1155.5 325.48 1155.72 325.908C1155.91 326.284 1156.22 326.59 1156.59 326.782C1157.02 327 1157.58 327 1158.7 327Z" stroke="#1570EF" stroke-width="1.66667" stroke-linecap="round" stroke-linejoin="round"/>
<path d="M1165.5 337C1154.45 337 1145.5 328.046 1145.5 317H1137.5C1137.5 332.464 1150.04 345 1165.5 345V337ZM1185.5 317C1185.5 328.046 1176.55 337 1165.5 337V345C1180.96 345 1193.5 332.464 1193.5 317H1185.5ZM1165.5 297C1176.55 297 1185.5 305.954 1185.5 317H1193.5C1193.5 301.536 1180.96 289 1165.5 289V297ZM1165.5 289C1150.04 289 1137.5 301.536 1137.5 317H1145.5C1145.5 305.954 1154.45 297 1165.5 297V289Z" fill="#EFF8FF"/>
<text fill="#175CD3" xml:space="preserve" style="white-space: pre" font-family="Product Sans" font-size="12" font-weight="bold" letter-spacing="0em"><tspan x="1143.59" y="364.242">SERVER</tspan></text>
<path d="M1084 248H1247V246H1084V248ZM1266 267V393H1268V267H1266ZM1247 412H1084V414H1247V412ZM1065 393V267H1063V393H1065ZM1084 412C1073.51 412 1065 403.493 1065 393H1063C1063 404.598 1072.4 414 1084 414V412ZM1266 393C1266 403.493 1257.49 412 1247 412V414C1258.6 414 1268 404.598 1268 393H1266ZM1247 248C1257.49 248 1266 256.507 1266 267H1268C1268 255.402 1258.6 246 1247 246V248ZM1084 246C1072.4 246 1063 255.402 1063 267H1065C1065 256.507 1073.51 248 1084 248V246Z" fill="black" fill-opacity="0.1"/>
</g>
<path d="M66 124C66 117.925 70.9249 113 77 113H182C188.075 113 193 117.925 193 124V124C193 130.075 188.075 135 182 135H77C70.9249 135 66 130.075 66 124V124Z" fill="#ECFDF3"/>
<circle cx="76" cy="124" r="3" fill="#12B76A"/>
<text fill="#027A48" xml:space="preserve" style="white-space: pre" font-family="Inter" font-size="12" font-weight="500" letter-spacing="0em"><tspan x="86.334" y="128.364">FIRST &#38; SECOND</tspan></text>
<text fill="#8C8C8C" xml:space="preserve" style="white-space: pre" font-family="Inter" font-size="12" font-weight="500" letter-spacing="0em"><tspan x="66" y="154.364">Different browser access same </tspan><tspan x="66" y="172.364">resource</tspan></text>
<rect x="800" y="434" width="342" height="98" rx="10" fill="black" fill-opacity="0.02"/>
<text fill="#8C8C8C" xml:space="preserve" style="white-space: pre" font-family="Monaco" font-size="12" letter-spacing="0em"><tspan x="895.326" y="459.5">cache-control: public&#10;</tspan><tspan x="826.859" y="477.5">etag: &#34;4960408E160450EAE42D83507EB23730&#34;</tspan></text>
<path d="M822 505C822 498.925 826.925 494 833 494H870C876.075 494 881 498.925 881 505V505C881 511.075 876.075 516 870 516H833C826.925 516 822 511.075 822 505V505Z" fill="#ECFDF3"/>
<circle cx="832" cy="505" r="3" fill="#12B76A"/>
<text fill="#027A48" xml:space="preserve" style="white-space: pre" font-family="Inter" font-size="12" font-weight="500" letter-spacing="0em"><tspan x="842.318" y="509.364">RESP</tspan></text>
<path d="M919 496C919 493.791 920.791 492 923 492H939C941.209 492 943 493.791 943 496V512C943 514.209 941.209 516 939 516H923C920.791 516 919 514.209 919 512V496Z" fill="#D1E9FF"/>
<path d="M932 499.135V501.2C932 501.48 932 501.62 932.054 501.727C932.102 501.821 932.179 501.898 932.273 501.946C932.38 502 932.52 502 932.8 502H934.865M933 504.5H929M933 506.5H929M930 502.5H929M932 499H929.4C928.56 499 928.14 499 927.819 499.163C927.537 499.307 927.307 499.537 927.163 499.819C927 500.14 927 500.56 927 501.4V506.6C927 507.44 927 507.86 927.163 508.181C927.307 508.463 927.537 508.693 927.819 508.837C928.14 509 928.56 509 929.4 509H932.6C933.44 509 933.86 509 934.181 508.837C934.463 508.693 934.693 508.463 934.837 508.181C935 507.86 935 507.44 935 506.6V502L932 499Z" stroke="#1570EF" stroke-linecap="round" stroke-linejoin="round"/>
<text fill="#1570EF" xml:space="preserve" style="white-space: pre" font-family="Inter" font-size="14" font-weight="500" letter-spacing="0em"><tspan x="954.089" y="509.091">index.html</tspan></text>
<rect x="800.5" y="434.5" width="341" height="97" rx="9.5" stroke="black" stroke-opacity="0.08"/>
<text fill="#667085" xml:space="preserve" style="white-space: pre" font-family="Monaco" font-size="14" letter-spacing="0em"><tspan x="571" y="589.25">Notes:&#10;</tspan><tspan x="571" y="609.25">* Step 2 -&#62; Step 3: Load Balancer reverse proxy files without cache locally&#10;</tspan><tspan x="571" y="629.25">* Step 6 -&#62; Step 7: Load Balancer reverse proxy files without cache locally</tspan></text>
<defs>
<filter id="filter0_d_60_1251" x="282" y="96" width="187" height="128" filterUnits="userSpaceOnUse" color-interpolation-filters="sRGB">
<feFlood flood-opacity="0" result="BackgroundImageFix"/>
<feColorMatrix in="SourceAlpha" type="matrix" values="0 0 0 0 0 0 0 0 0 0 0 0 0 0 0 0 0 0 127 0" result="hardAlpha"/>
<feOffset dy="4"/>
<feGaussianBlur stdDeviation="5"/>
<feComposite in2="hardAlpha" operator="out"/>
<feColorMatrix type="matrix" values="0 0 0 0 0 0 0 0 0 0 0 0 0 0 0 0 0 0 0.05 0"/>
<feBlend mode="normal" in2="BackgroundImageFix" result="effect1_dropShadow_60_1251"/>
<feBlend mode="normal" in="SourceGraphic" in2="effect1_dropShadow_60_1251" result="shape"/>
</filter>
<filter id="filter1_d_60_1251" x="282" y="406" width="189" height="128" filterUnits="userSpaceOnUse" color-interpolation-filters="sRGB">
<feFlood flood-opacity="0" result="BackgroundImageFix"/>
<feColorMatrix in="SourceAlpha" type="matrix" values="0 0 0 0 0 0 0 0 0 0 0 0 0 0 0 0 0 0 127 0" result="hardAlpha"/>
<feOffset dy="4"/>
<feGaussianBlur stdDeviation="5"/>
<feComposite in2="hardAlpha" operator="out"/>
<feColorMatrix type="matrix" values="0 0 0 0 0 0 0 0 0 0 0 0 0 0 0 0 0 0 0.05 0"/>
<feBlend mode="normal" in2="BackgroundImageFix" result="effect1_dropShadow_60_1251"/>
<feBlend mode="normal" in="SourceGraphic" in2="effect1_dropShadow_60_1251" result="shape"/>
</filter>
<filter id="filter2_d_60_1251" x="643" y="241" width="223" height="186" filterUnits="userSpaceOnUse" color-interpolation-filters="sRGB">
<feFlood flood-opacity="0" result="BackgroundImageFix"/>
<feColorMatrix in="SourceAlpha" type="matrix" values="0 0 0 0 0 0 0 0 0 0 0 0 0 0 0 0 0 0 127 0" result="hardAlpha"/>
<feOffset dy="4"/>
<feGaussianBlur stdDeviation="5"/>
<feComposite in2="hardAlpha" operator="out"/>
<feColorMatrix type="matrix" values="0 0 0 0 0 0 0 0 0 0 0 0 0 0 0 0 0 0 0.05 0"/>
<feBlend mode="normal" in2="BackgroundImageFix" result="effect1_dropShadow_60_1251"/>
<feBlend mode="normal" in="SourceGraphic" in2="effect1_dropShadow_60_1251" result="shape"/>
</filter>
<filter id="filter3_d_60_1251" x="1054" y="241" width="223" height="186" filterUnits="userSpaceOnUse" color-interpolation-filters="sRGB">
<feFlood flood-opacity="0" result="BackgroundImageFix"/>
<feColorMatrix in="SourceAlpha" type="matrix" values="0 0 0 0 0 0 0 0 0 0 0 0 0 0 0 0 0 0 127 0" result="hardAlpha"/>
<feOffset dy="4"/>
<feGaussianBlur stdDeviation="5"/>
<feComposite in2="hardAlpha" operator="out"/>
<feColorMatrix type="matrix" values="0 0 0 0 0 0 0 0 0 0 0 0 0 0 0 0 0 0 0.05 0"/>
<feBlend mode="normal" in2="BackgroundImageFix" result="effect1_dropShadow_60_1251"/>
<feBlend mode="normal" in="SourceGraphic" in2="effect1_dropShadow_60_1251" result="shape"/>
</filter>
<clipPath id="clip0_60_1251">
<rect width="12" height="12" fill="white" transform="translate(533.414 464.828) rotate(-30)"/>
</clipPath>
<clipPath id="clip1_60_1251">
<rect width="12" height="12" fill="white" transform="translate(500.129 221.596) rotate(30)"/>
</clipPath>
</defs>
</svg>
