<svg width="1339" height="744" viewBox="0 0 1339 744" fill="none" xmlns="http://www.w3.org/2000/svg">
<g filter="url(#filter0_d_53_2658)">
<path d="M292 113C292 101.954 300.954 93 312 93H439C450.046 93 459 101.954 459 113V181C459 192.046 450.046 201 439 201H312C300.954 201 292 192.046 292 181V113Z" fill="white" fill-opacity="0.3" shape-rendering="crispEdges"/>
<path d="M351.5 134C351.5 120.745 362.245 110 375.5 110V110C388.755 110 399.5 120.745 399.5 134V134C399.5 147.255 388.755 158 375.5 158V158C362.245 158 351.5 147.255 351.5 134V134Z" fill="#175CD3"/>
<path d="M385.5 131H365.5M365.5 129.8L365.5 138.2C365.5 139.88 365.5 140.72 365.827 141.362C366.115 141.926 366.574 142.385 367.138 142.673C367.78 143 368.62 143 370.3 143H380.7C382.38 143 383.22 143 383.862 142.673C384.426 142.385 384.885 141.926 385.173 141.362C385.5 140.72 385.5 139.88 385.5 138.2V129.8C385.5 128.12 385.5 127.28 385.173 126.638C384.885 126.074 384.426 125.615 383.862 125.327C383.22 125 382.38 125 380.7 125L370.3 125C368.62 125 367.78 125 367.138 125.327C366.574 125.615 366.115 126.074 365.827 126.638C365.5 127.28 365.5 128.12 365.5 129.8Z" stroke="#B2DDFF" stroke-width="1.66667" stroke-linecap="round" stroke-linejoin="round"/>
<path d="M375.5 154C364.454 154 355.5 145.046 355.5 134H347.5C347.5 149.464 360.036 162 375.5 162V154ZM395.5 134C395.5 145.046 386.546 154 375.5 154V162C390.964 162 403.5 149.464 403.5 134H395.5ZM375.5 114C386.546 114 395.5 122.954 395.5 134H403.5C403.5 118.536 390.964 106 375.5 106V114ZM375.5 106C360.036 106 347.5 118.536 347.5 134H355.5C355.5 122.954 364.454 114 375.5 114V106Z" fill="#1849A9"/>
<text fill="#D1E0FF" xml:space="preserve" style="white-space: pre" font-family="Product Sans" font-size="12" font-weight="bold" letter-spacing="0em"><tspan x="344.281" y="181.242">BROWSER1</tspan></text>
<path d="M312 94H439V92H312V94ZM458 113V181H460V113H458ZM439 200H312V202H439V200ZM293 181V113H291V181H293ZM312 200C301.507 200 293 191.493 293 181H291C291 192.598 300.402 202 312 202V200ZM458 181C458 191.493 449.493 200 439 200V202C450.598 202 460 192.598 460 181H458ZM439 94C449.493 94 458 102.507 458 113H460C460 101.402 450.598 92 439 92V94ZM312 92C300.402 92 291 101.402 291 113H293C293 102.507 301.507 94 312 94V92Z" fill="white" fill-opacity="0.2"/>
</g>
<g filter="url(#filter1_d_53_2658)">
<path d="M292 423C292 411.954 300.954 403 312 403H441C452.046 403 461 411.954 461 423V491C461 502.046 452.046 511 441 511H312C300.954 511 292 502.046 292 491V423Z" fill="white" fill-opacity="0.3" shape-rendering="crispEdges"/>
<path d="M352.5 444C352.5 430.745 363.245 420 376.5 420V420C389.755 420 400.5 430.745 400.5 444V444C400.5 457.255 389.755 468 376.5 468V468C363.245 468 352.5 457.255 352.5 444V444Z" fill="#175CD3"/>
<path d="M386.5 441H366.5M366.5 439.8L366.5 448.2C366.5 449.88 366.5 450.72 366.827 451.362C367.115 451.926 367.574 452.385 368.138 452.673C368.78 453 369.62 453 371.3 453H381.7C383.38 453 384.22 453 384.862 452.673C385.426 452.385 385.885 451.926 386.173 451.362C386.5 450.72 386.5 449.88 386.5 448.2V439.8C386.5 438.12 386.5 437.28 386.173 436.638C385.885 436.074 385.426 435.615 384.862 435.327C384.22 435 383.38 435 381.7 435L371.3 435C369.62 435 368.78 435 368.138 435.327C367.574 435.615 367.115 436.074 366.827 436.638C366.5 437.28 366.5 438.12 366.5 439.8Z" stroke="#B2DDFF" stroke-width="1.66667" stroke-linecap="round" stroke-linejoin="round"/>
<path d="M376.5 464C365.454 464 356.5 455.046 356.5 444H348.5C348.5 459.464 361.036 472 376.5 472V464ZM396.5 444C396.5 455.046 387.546 464 376.5 464V472C391.964 472 404.5 459.464 404.5 444H396.5ZM376.5 424C387.546 424 396.5 432.954 396.5 444H404.5C404.5 428.536 391.964 416 376.5 416V424ZM376.5 416C361.036 416 348.5 428.536 348.5 444H356.5C356.5 432.954 365.454 424 376.5 424V416Z" fill="#1849A9"/>
<text fill="#D1E0FF" xml:space="preserve" style="white-space: pre" font-family="Product Sans" font-size="12" font-weight="bold" letter-spacing="0em"><tspan x="344.496" y="491.242">BROWSER2</tspan></text>
<path d="M312 404H441V402H312V404ZM460 423V491H462V423H460ZM441 510H312V512H441V510ZM293 491V423H291V491H293ZM312 510C301.507 510 293 501.493 293 491H291C291 502.598 300.402 512 312 512V510ZM460 491C460 501.493 451.493 510 441 510V512C452.598 512 462 502.598 462 491H460ZM441 404C451.493 404 460 412.507 460 423H462C462 411.402 452.598 402 441 402V404ZM312 402C300.402 402 291 411.402 291 423H293C293 412.507 301.507 404 312 404V402Z" fill="white" fill-opacity="0.2"/>
</g>
<path d="M497.213 390.126C494.175 384.865 495.978 378.137 501.239 375.1L558.397 342.1C563.658 339.062 570.385 340.865 573.423 346.126V346.126C576.461 351.387 574.658 358.115 569.397 361.152L512.239 394.152C506.978 397.19 500.25 395.387 497.213 390.126V390.126Z" fill="#0B4A6F"/>
<path d="M504.574 385.876L510.636 382.376M510.636 382.376L505.855 381.095M510.636 382.376L509.355 387.157" stroke="#84CAFF" stroke-width="1.5" stroke-linecap="round" stroke-linejoin="round"/>
<text transform="translate(511.765 371.332) rotate(-30)" fill="#84CAFF" xml:space="preserve" style="white-space: pre" font-family="Inter" font-size="12" font-weight="500" letter-spacing="0em"><tspan x="0.447266" y="13.3636">5. GET `/`</tspan></text>
<line x1="479.75" y1="423.879" x2="611.386" y2="347.879" stroke="#434343"/>
<path d="M515.615 427.999C512.577 422.738 514.38 416.01 519.641 412.973L581.995 376.973C587.256 373.935 593.984 375.738 597.021 380.999V380.999C600.059 386.26 598.256 392.988 592.995 396.025L530.641 432.025C525.38 435.063 518.652 433.26 515.615 427.999V427.999Z" fill="#0B4A6F"/>
<path d="M529.038 420.249L522.976 423.749M522.976 423.749L527.757 425.03M522.976 423.749L524.257 418.968" stroke="#84CAFF" stroke-width="1.5" stroke-linecap="round" stroke-linejoin="round"/>
<text transform="translate(530.167 409.205) rotate(-30)" fill="#84CAFF" xml:space="preserve" style="white-space: pre" font-family="Inter" font-size="12" font-weight="500" letter-spacing="0em"><tspan x="0.230469" y="13.3636">6. RESP `/`</tspan></text>
<path d="M527.218 457.096C526.113 455.183 526.768 452.736 528.682 451.632L542.538 443.632C544.451 442.527 546.898 443.183 548.002 445.096L556.002 458.952C557.107 460.865 556.451 463.312 554.538 464.416L540.682 472.416C538.768 473.521 536.322 472.865 535.218 470.952L527.218 457.096Z" fill="#175CD3"/>
<g clip-path="url(#clip0_53_2658)">
<path d="M540.043 453.31L541.076 455.099C541.216 455.342 541.286 455.463 541.387 455.528C541.475 455.586 541.58 455.614 541.685 455.608C541.805 455.602 541.926 455.532 542.169 455.392L543.957 454.359M543.592 457.457L540.128 459.457M544.592 459.189L541.128 461.189M539.994 457.225L539.128 457.725M539.976 453.194L537.724 454.494C536.997 454.914 536.633 455.124 536.437 455.426C536.264 455.691 536.18 456.005 536.197 456.321C536.216 456.681 536.426 457.045 536.846 457.772L539.446 462.276C539.866 463.003 540.076 463.367 540.378 463.563C540.643 463.735 540.957 463.819 541.273 463.803C541.633 463.784 541.997 463.574 542.724 463.154L545.495 461.554C546.223 461.134 546.587 460.924 546.783 460.622C546.955 460.356 547.039 460.043 547.023 459.726C547.004 459.367 546.794 459.003 546.374 458.276L544.074 454.292L539.976 453.194Z" stroke="#D1E9FF" stroke-linecap="round" stroke-linejoin="round"/>
</g>
<text transform="translate(556.528 437.864) rotate(-30)" fill="#B2DDFF" xml:space="preserve" style="white-space: pre" font-family="Inter" font-size="14" font-weight="500" letter-spacing="0em"><tspan x="0.0888672" y="15.0909">index.html</tspan></text>
<path d="M544.079 142.026C547.116 136.765 553.844 134.962 559.105 138L614.531 170C619.792 173.038 621.595 179.765 618.557 185.026V185.026C615.519 190.287 608.792 192.09 603.531 189.053L548.105 157.053C542.844 154.015 541.041 147.287 544.079 142.026V142.026Z" fill="#05603A"/>
<path d="M551.44 146.276L557.502 149.776M557.502 149.776L556.221 144.995M557.502 149.776L552.721 151.057" stroke="#6CE9A6" stroke-width="1.5" stroke-linecap="round" stroke-linejoin="round"/>
<text transform="translate(567.631 145.232) rotate(30)" fill="#6CE9A6" xml:space="preserve" style="white-space: pre" font-family="Inter" font-size="12" font-weight="500" letter-spacing="0em"><tspan x="0.425781" y="13.3636">1. GET `/`</tspan></text>
<line x1="505.25" y1="143.28" x2="636.886" y2="219.28" stroke="#434343"/>
<path d="M519.615 176.399C522.652 171.138 529.38 169.335 534.641 172.373L596.995 208.373C602.256 211.411 604.059 218.138 601.021 223.399V223.399C597.984 228.661 591.256 230.463 585.995 227.426L523.641 191.426C518.38 188.388 516.577 181.661 519.615 176.399V176.399Z" fill="#05603A"/>
<path d="M533.038 184.149L526.976 180.649M526.976 180.649L528.257 185.43M526.976 180.649L531.757 179.368" stroke="#6CE9A6" stroke-width="1.5" stroke-linecap="round" stroke-linejoin="round"/>
<text transform="translate(543.167 179.605) rotate(30)" fill="#6CE9A6" xml:space="preserve" style="white-space: pre" font-family="Inter" font-size="12" font-weight="500" letter-spacing="0em"><tspan x="0.0839844" y="13.3636">4. RESP `/`</tspan></text>
<path d="M495.933 207.864C497.038 205.951 499.484 205.295 501.397 206.4L515.254 214.4C517.167 215.505 517.822 217.951 516.718 219.864L508.718 233.721C507.613 235.634 505.167 236.289 503.254 235.185L489.397 227.185C487.484 226.08 486.829 223.634 487.933 221.721L495.933 207.864Z" fill="#175CD3"/>
<g clip-path="url(#clip1_53_2658)">
<path d="M505.624 217.079L504.591 218.867C504.451 219.11 504.381 219.231 504.375 219.351C504.37 219.457 504.398 219.561 504.455 219.65C504.52 219.75 504.642 219.82 504.884 219.96L506.673 220.993M503.807 222.225L500.343 220.225M502.807 223.957L499.343 221.957M502.209 218.993L501.343 218.493M505.691 216.962L503.44 215.662C502.712 215.242 502.348 215.032 501.989 215.013C501.673 214.997 501.359 215.081 501.093 215.253C500.791 215.449 500.581 215.813 500.161 216.541L497.561 221.044C497.141 221.771 496.931 222.135 496.912 222.495C496.896 222.811 496.98 223.125 497.152 223.39C497.348 223.692 497.712 223.902 498.44 224.322L501.211 225.922C501.939 226.342 502.302 226.552 502.662 226.571C502.978 226.588 503.292 226.504 503.557 226.331C503.859 226.135 504.069 225.771 504.49 225.044L506.79 221.06L505.691 216.962Z" stroke="#D1E9FF" stroke-linecap="round" stroke-linejoin="round"/>
</g>
<text transform="translate(527.244 223.632) rotate(30)" fill="#B2DDFF" xml:space="preserve" style="white-space: pre" font-family="Inter" font-size="14" font-weight="500" letter-spacing="0em"><tspan x="0.0888672" y="15.0909">index.html</tspan></text>
<g filter="url(#filter2_d_53_2658)">
<path d="M653 267C653 255.954 661.954 247 673 247H836C847.046 247 856 255.954 856 267V335C856 346.046 847.046 355 836 355H673C661.954 355 653 346.046 653 335V267Z" fill="white" fill-opacity="0.3" shape-rendering="crispEdges"/>
<path d="M730.5 288C730.5 274.745 741.245 264 754.5 264V264C767.755 264 778.5 274.745 778.5 288V288C778.5 301.255 767.755 312 754.5 312V312C741.245 312 730.5 301.255 730.5 288V288Z" fill="#175CD3"/>
<path d="M761.5 285C761.5 288.866 758.366 292 754.5 292M761.5 285C761.5 281.134 758.366 278 754.5 278M761.5 285H747.5M754.5 292C750.634 292 747.5 288.866 747.5 285M754.5 292C756.251 290.083 757.247 287.596 757.301 285C757.247 282.404 756.251 279.917 754.5 278M754.5 292C752.749 290.083 751.755 287.596 751.701 285C751.755 282.404 752.749 279.917 754.5 278M754.5 292V294M747.5 285C747.5 281.134 750.634 278 754.5 278M756.5 296C756.5 297.105 755.605 298 754.5 298C753.395 298 752.5 297.105 752.5 296M756.5 296C756.5 294.895 755.605 294 754.5 294M756.5 296H763.5M752.5 296C752.5 294.895 753.395 294 754.5 294M752.5 296H745.5" stroke="#D1E0FF" stroke-width="2" stroke-linecap="round" stroke-linejoin="round"/>
<path d="M754.5 308C743.454 308 734.5 299.046 734.5 288H726.5C726.5 303.464 739.036 316 754.5 316V308ZM774.5 288C774.5 299.046 765.546 308 754.5 308V316C769.964 316 782.5 303.464 782.5 288H774.5ZM754.5 268C765.546 268 774.5 276.954 774.5 288H782.5C782.5 272.536 769.964 260 754.5 260V268ZM754.5 260C739.036 260 726.5 272.536 726.5 288H734.5C734.5 276.954 743.454 268 754.5 268V260Z" fill="#1849A9"/>
<text fill="#D1E0FF" xml:space="preserve" style="white-space: pre" font-family="Product Sans" font-size="12" font-weight="bold" letter-spacing="0em"><tspan x="705.258" y="335.242">LOAD BALANCER</tspan></text>
<path d="M673 248H836V246H673V248ZM855 267V335H857V267H855ZM836 354H673V356H836V354ZM654 335V267H652V335H654ZM673 354C662.507 354 654 345.493 654 335H652C652 346.598 661.402 356 673 356V354ZM855 335C855 345.493 846.493 354 836 354V356C847.598 356 857 346.598 857 335H855ZM836 248C846.493 248 855 256.507 855 267H857C857 255.402 847.598 246 836 246V248ZM673 246C661.402 246 652 255.402 652 267H654C654 256.507 662.507 248 673 248V246Z" fill="white" fill-opacity="0.2"/>
</g>
<path d="M916 280C916 273.925 920.925 269 927 269H993C999.075 269 1004 273.925 1004 280V280C1004 286.075 999.075 291 993 291H927C920.925 291 916 286.075 916 280V280Z" fill="#05603A"/>
<path d="M924.5 280H931.5M931.5 280L928 276.5M931.5 280L928 283.5" stroke="#6CE9A6" stroke-width="1.5" stroke-linecap="round" stroke-linejoin="round"/>
<text fill="#6CE9A6" xml:space="preserve" style="white-space: pre" font-family="Inter" font-size="12" font-weight="500" letter-spacing="0em"><tspan x="938.33" y="284.364">2. GET `/`</tspan></text>
<line x1="884" y1="300.5" x2="1036" y2="300.5" stroke="#434343"/>
<path d="M913 322C913 315.925 917.925 311 924 311H996C1002.08 311 1007 315.925 1007 322V322C1007 328.075 1002.08 333 996 333H924C917.925 333 913 328.075 913 322V322Z" fill="#05603A"/>
<path d="M928.5 322H921.5M921.5 322L925 325.5M921.5 322L925 318.5" stroke="#6CE9A6" stroke-width="1.5" stroke-linecap="round" stroke-linejoin="round"/>
<text fill="#6CE9A6" xml:space="preserve" style="white-space: pre" font-family="Inter" font-size="12" font-weight="500" letter-spacing="0em"><tspan x="935.107" y="326.364">3. RESP `/`</tspan></text>
<g filter="url(#filter3_d_53_2658)">
<path d="M1064 267C1064 255.954 1072.95 247 1084 247H1196C1207.05 247 1216 255.954 1216 267V335C1216 346.046 1207.05 355 1196 355H1084C1072.95 355 1064 346.046 1064 335V267Z" fill="white" fill-opacity="0.3" shape-rendering="crispEdges"/>
<path d="M1116 288C1116 274.745 1126.75 264 1140 264V264C1153.25 264 1164 274.745 1164 288V288C1164 301.255 1153.25 312 1140 312V312C1126.75 312 1116 301.255 1116 288V288Z" fill="#175CD3"/>
<path d="M1134 282H1134.01M1134 294H1134.01M1133.2 286H1146.8C1147.92 286 1148.48 286 1148.91 285.782C1149.28 285.59 1149.59 285.284 1149.78 284.908C1150 284.48 1150 283.92 1150 282.8V281.2C1150 280.08 1150 279.52 1149.78 279.092C1149.59 278.716 1149.28 278.41 1148.91 278.218C1148.48 278 1147.92 278 1146.8 278H1133.2C1132.08 278 1131.52 278 1131.09 278.218C1130.72 278.41 1130.41 278.716 1130.22 279.092C1130 279.52 1130 280.08 1130 281.2V282.8C1130 283.92 1130 284.48 1130.22 284.908C1130.41 285.284 1130.72 285.59 1131.09 285.782C1131.52 286 1132.08 286 1133.2 286ZM1133.2 298H1146.8C1147.92 298 1148.48 298 1148.91 297.782C1149.28 297.59 1149.59 297.284 1149.78 296.908C1150 296.48 1150 295.92 1150 294.8V293.2C1150 292.08 1150 291.52 1149.78 291.092C1149.59 290.716 1149.28 290.41 1148.91 290.218C1148.48 290 1147.92 290 1146.8 290H1133.2C1132.08 290 1131.52 290 1131.09 290.218C1130.72 290.41 1130.41 290.716 1130.22 291.092C1130 291.52 1130 292.08 1130 293.2V294.8C1130 295.92 1130 296.48 1130.22 296.908C1130.41 297.284 1130.72 297.59 1131.09 297.782C1131.52 298 1132.08 298 1133.2 298Z" stroke="#D1E0FF" stroke-width="2" stroke-linecap="round" stroke-linejoin="round"/>
<path d="M1140 308C1128.95 308 1120 299.046 1120 288H1112C1112 303.464 1124.54 316 1140 316V308ZM1160 288C1160 299.046 1151.05 308 1140 308V316C1155.46 316 1168 303.464 1168 288H1160ZM1140 268C1151.05 268 1160 276.954 1160 288H1168C1168 272.536 1155.46 260 1140 260V268ZM1140 260C1124.54 260 1112 272.536 1112 288H1120C1120 276.954 1128.95 268 1140 268V260Z" fill="#1849A9"/>
<text fill="#D1E0FF" xml:space="preserve" style="white-space: pre" font-family="Product Sans" font-size="12" font-weight="bold" letter-spacing="0em"><tspan x="1118.09" y="335.242">SERVER</tspan></text>
<path d="M1084 248H1196V246H1084V248ZM1215 267V335H1217V267H1215ZM1196 354H1084V356H1196V354ZM1065 335V267H1063V335H1065ZM1084 354C1073.51 354 1065 345.493 1065 335H1063C1063 346.598 1072.4 356 1084 356V354ZM1215 335C1215 345.493 1206.49 354 1196 354V356C1207.6 356 1217 346.598 1217 335H1215ZM1196 248C1206.49 248 1215 256.507 1215 267H1217C1217 255.402 1207.6 246 1196 246V248ZM1084 246C1072.4 246 1063 255.402 1063 267H1065C1065 256.507 1073.51 248 1084 248V246Z" fill="white" fill-opacity="0.2"/>
</g>
<path d="M66 124C66 117.925 70.9249 113 77 113H182C188.075 113 193 117.925 193 124V124C193 130.075 188.075 135 182 135H77C70.9249 135 66 130.075 66 124V124Z" fill="#027A48"/>
<circle cx="76" cy="124" r="3" fill="#6CE9A6"/>
<text fill="#6CE9A6" xml:space="preserve" style="white-space: pre" font-family="Inter" font-size="12" font-weight="500" letter-spacing="0em"><tspan x="86.334" y="128.364">FIRST &#38; SECOND</tspan></text>
<text fill="#8C8C8C" xml:space="preserve" style="white-space: pre" font-family="Inter" font-size="12" font-weight="500" letter-spacing="0em"><tspan x="66" y="154.364">Different browser access same </tspan><tspan x="66" y="172.364">resource</tspan></text>
<rect x="796" y="373" width="342" height="98" rx="10" fill="white" fill-opacity="0.1"/>
<text fill="#BFBFBF" xml:space="preserve" style="white-space: pre" font-family="Monaco" font-size="12" letter-spacing="0em"><tspan x="891.326" y="398.5">cache-control: public&#10;</tspan><tspan x="822.859" y="416.5">etag: &#34;4960408E160450EAE42D83507EB23730&#34;</tspan></text>
<path d="M818 444C818 437.925 822.925 433 829 433H866C872.075 433 877 437.925 877 444V444C877 450.075 872.075 455 866 455H829C822.925 455 818 450.075 818 444V444Z" fill="#05603A"/>
<circle cx="828" cy="444" r="3" fill="#6CE9A6"/>
<text fill="#6CE9A6" xml:space="preserve" style="white-space: pre" font-family="Inter" font-size="12" font-weight="500" letter-spacing="0em"><tspan x="838.318" y="448.364">RESP</tspan></text>
<path d="M915 435C915 432.791 916.791 431 919 431H935C937.209 431 939 432.791 939 435V451C939 453.209 937.209 455 935 455H919C916.791 455 915 453.209 915 451V435Z" fill="#175CD3"/>
<path d="M928 438.135V440.2C928 440.48 928 440.62 928.054 440.727C928.102 440.821 928.179 440.898 928.273 440.946C928.38 441 928.52 441 928.8 441H930.865M929 443.5H925M929 445.5H925M926 441.5H925M928 438H925.4C924.56 438 924.14 438 923.819 438.163C923.537 438.307 923.307 438.537 923.163 438.819C923 439.14 923 439.56 923 440.4V445.6C923 446.44 923 446.86 923.163 447.181C923.307 447.463 923.537 447.693 923.819 447.837C924.14 448 924.56 448 925.4 448H928.6C929.44 448 929.86 448 930.181 447.837C930.463 447.693 930.693 447.463 930.837 447.181C931 446.86 931 446.44 931 445.6V441L928 438Z" stroke="#D1E9FF" stroke-linecap="round" stroke-linejoin="round"/>
<text fill="#B2DDFF" xml:space="preserve" style="white-space: pre" font-family="Inter" font-size="14" font-weight="500" letter-spacing="0em"><tspan x="950.089" y="448.091">index.html</tspan></text>
<rect x="796.5" y="373.5" width="341" height="97" rx="9.5" stroke="white" stroke-opacity="0.2"/>
<text fill="#98A2B3" xml:space="preserve" style="white-space: pre" font-family="Monaco" font-size="14" letter-spacing="0em"><tspan x="571" y="589.25">Notes:&#10;</tspan><tspan x="571" y="609.25">* Step 3 -&#62; Step 4: Load Balancer persisted `index.html` inside local storage&#10;</tspan><tspan x="571" y="629.25">* Step 5 -&#62; Step 6: Load Balancer response `index.html` directly from local    </tspan><tspan x="571" y="649.25">storage without refetch from upstream</tspan></text>
<defs>
<filter id="filter0_d_53_2658" x="282" y="87" width="187" height="128" filterUnits="userSpaceOnUse" color-interpolation-filters="sRGB">
<feFlood flood-opacity="0" result="BackgroundImageFix"/>
<feColorMatrix in="SourceAlpha" type="matrix" values="0 0 0 0 0 0 0 0 0 0 0 0 0 0 0 0 0 0 127 0" result="hardAlpha"/>
<feOffset dy="4"/>
<feGaussianBlur stdDeviation="5"/>
<feComposite in2="hardAlpha" operator="out"/>
<feColorMatrix type="matrix" values="0 0 0 0 1 0 0 0 0 1 0 0 0 0 1 0 0 0 0.2 0"/>
<feBlend mode="normal" in2="BackgroundImageFix" result="effect1_dropShadow_53_2658"/>
<feBlend mode="normal" in="SourceGraphic" in2="effect1_dropShadow_53_2658" result="shape"/>
</filter>
<filter id="filter1_d_53_2658" x="282" y="397" width="189" height="128" filterUnits="userSpaceOnUse" color-interpolation-filters="sRGB">
<feFlood flood-opacity="0" result="BackgroundImageFix"/>
<feColorMatrix in="SourceAlpha" type="matrix" values="0 0 0 0 0 0 0 0 0 0 0 0 0 0 0 0 0 0 127 0" result="hardAlpha"/>
<feOffset dy="4"/>
<feGaussianBlur stdDeviation="5"/>
<feComposite in2="hardAlpha" operator="out"/>
<feColorMatrix type="matrix" values="0 0 0 0 1 0 0 0 0 1 0 0 0 0 1 0 0 0 0.2 0"/>
<feBlend mode="normal" in2="BackgroundImageFix" result="effect1_dropShadow_53_2658"/>
<feBlend mode="normal" in="SourceGraphic" in2="effect1_dropShadow_53_2658" result="shape"/>
</filter>
<filter id="filter2_d_53_2658" x="643" y="241" width="223" height="128" filterUnits="userSpaceOnUse" color-interpolation-filters="sRGB">
<feFlood flood-opacity="0" result="BackgroundImageFix"/>
<feColorMatrix in="SourceAlpha" type="matrix" values="0 0 0 0 0 0 0 0 0 0 0 0 0 0 0 0 0 0 127 0" result="hardAlpha"/>
<feOffset dy="4"/>
<feGaussianBlur stdDeviation="5"/>
<feComposite in2="hardAlpha" operator="out"/>
<feColorMatrix type="matrix" values="0 0 0 0 1 0 0 0 0 1 0 0 0 0 1 0 0 0 0.2 0"/>
<feBlend mode="normal" in2="BackgroundImageFix" result="effect1_dropShadow_53_2658"/>
<feBlend mode="normal" in="SourceGraphic" in2="effect1_dropShadow_53_2658" result="shape"/>
</filter>
<filter id="filter3_d_53_2658" x="1054" y="241" width="172" height="128" filterUnits="userSpaceOnUse" color-interpolation-filters="sRGB">
<feFlood flood-opacity="0" result="BackgroundImageFix"/>
<feColorMatrix in="SourceAlpha" type="matrix" values="0 0 0 0 0 0 0 0 0 0 0 0 0 0 0 0 0 0 127 0" result="hardAlpha"/>
<feOffset dy="4"/>
<feGaussianBlur stdDeviation="5"/>
<feComposite in2="hardAlpha" operator="out"/>
<feColorMatrix type="matrix" values="0 0 0 0 1 0 0 0 0 1 0 0 0 0 1 0 0 0 0.2 0"/>
<feBlend mode="normal" in2="BackgroundImageFix" result="effect1_dropShadow_53_2658"/>
<feBlend mode="normal" in="SourceGraphic" in2="effect1_dropShadow_53_2658" result="shape"/>
</filter>
<clipPath id="clip0_53_2658">
<rect width="12" height="12" fill="white" transform="translate(533.414 455.828) rotate(-30)"/>
</clipPath>
<clipPath id="clip1_53_2658">
<rect width="12" height="12" fill="white" transform="translate(500.129 212.596) rotate(30)"/>
</clipPath>
</defs>
</svg>
