<svg width="1339" height="744" viewBox="0 0 1339 744" fill="none" xmlns="http://www.w3.org/2000/svg">
<g filter="url(#filter0_d_48_1072)">
<path d="M292 122C292 110.954 300.954 102 312 102H439C450.046 102 459 110.954 459 122V190C459 201.046 450.046 210 439 210H312C300.954 210 292 201.046 292 190V122Z" fill="white" fill-opacity="0.6" shape-rendering="crispEdges"/>
<path d="M351.5 143C351.5 129.745 362.245 119 375.5 119V119C388.755 119 399.5 129.745 399.5 143V143C399.5 156.255 388.755 167 375.5 167V167C362.245 167 351.5 156.255 351.5 143V143Z" fill="#D1E9FF"/>
<path d="M385.5 140H365.5M365.5 138.8L365.5 147.2C365.5 148.88 365.5 149.72 365.827 150.362C366.115 150.926 366.574 151.385 367.138 151.673C367.78 152 368.62 152 370.3 152H380.7C382.38 152 383.22 152 383.862 151.673C384.426 151.385 384.885 150.926 385.173 150.362C385.5 149.72 385.5 148.88 385.5 147.2V138.8C385.5 137.12 385.5 136.28 385.173 135.638C384.885 135.074 384.426 134.615 383.862 134.327C383.22 134 382.38 134 380.7 134L370.3 134C368.62 134 367.78 134 367.138 134.327C366.574 134.615 366.115 135.074 365.827 135.638C365.5 136.28 365.5 137.12 365.5 138.8Z" stroke="#1570EF" stroke-width="1.66667" stroke-linecap="round" stroke-linejoin="round"/>
<path d="M375.5 163C364.454 163 355.5 154.046 355.5 143H347.5C347.5 158.464 360.036 171 375.5 171V163ZM395.5 143C395.5 154.046 386.546 163 375.5 163V171C390.964 171 403.5 158.464 403.5 143H395.5ZM375.5 123C386.546 123 395.5 131.954 395.5 143H403.5C403.5 127.536 390.964 115 375.5 115V123ZM375.5 115C360.036 115 347.5 127.536 347.5 143H355.5C355.5 131.954 364.454 123 375.5 123V115Z" fill="#EFF8FF"/>
<text fill="#175CD3" xml:space="preserve" style="white-space: pre" font-family="Product Sans" font-size="12" font-weight="bold" letter-spacing="0em"><tspan x="344.281" y="190.242">BROWSER1</tspan></text>
<path d="M312 103H439V101H312V103ZM458 122V190H460V122H458ZM439 209H312V211H439V209ZM293 190V122H291V190H293ZM312 209C301.507 209 293 200.493 293 190H291C291 201.598 300.402 211 312 211V209ZM458 190C458 200.493 449.493 209 439 209V211C450.598 211 460 201.598 460 190H458ZM439 103C449.493 103 458 111.507 458 122H460C460 110.402 450.598 101 439 101V103ZM312 101C300.402 101 291 110.402 291 122H293C293 111.507 301.507 103 312 103V101Z" fill="black" fill-opacity="0.1"/>
</g>
<g filter="url(#filter1_d_48_1072)">
<path d="M292 432C292 420.954 300.954 412 312 412H441C452.046 412 461 420.954 461 432V500C461 511.046 452.046 520 441 520H312C300.954 520 292 511.046 292 500V432Z" fill="white" fill-opacity="0.6" shape-rendering="crispEdges"/>
<path d="M352.5 453C352.5 439.745 363.245 429 376.5 429V429C389.755 429 400.5 439.745 400.5 453V453C400.5 466.255 389.755 477 376.5 477V477C363.245 477 352.5 466.255 352.5 453V453Z" fill="#D1E9FF"/>
<path d="M386.5 450H366.5M366.5 448.8L366.5 457.2C366.5 458.88 366.5 459.72 366.827 460.362C367.115 460.926 367.574 461.385 368.138 461.673C368.78 462 369.62 462 371.3 462H381.7C383.38 462 384.22 462 384.862 461.673C385.426 461.385 385.885 460.926 386.173 460.362C386.5 459.72 386.5 458.88 386.5 457.2V448.8C386.5 447.12 386.5 446.28 386.173 445.638C385.885 445.074 385.426 444.615 384.862 444.327C384.22 444 383.38 444 381.7 444L371.3 444C369.62 444 368.78 444 368.138 444.327C367.574 444.615 367.115 445.074 366.827 445.638C366.5 446.28 366.5 447.12 366.5 448.8Z" stroke="#1570EF" stroke-width="1.66667" stroke-linecap="round" stroke-linejoin="round"/>
<path d="M376.5 473C365.454 473 356.5 464.046 356.5 453H348.5C348.5 468.464 361.036 481 376.5 481V473ZM396.5 453C396.5 464.046 387.546 473 376.5 473V481C391.964 481 404.5 468.464 404.5 453H396.5ZM376.5 433C387.546 433 396.5 441.954 396.5 453H404.5C404.5 437.536 391.964 425 376.5 425V433ZM376.5 425C361.036 425 348.5 437.536 348.5 453H356.5C356.5 441.954 365.454 433 376.5 433V425Z" fill="#EFF8FF"/>
<text fill="#175CD3" xml:space="preserve" style="white-space: pre" font-family="Product Sans" font-size="12" font-weight="bold" letter-spacing="0em"><tspan x="344.496" y="500.242">BROWSER2</tspan></text>
<path d="M312 413H441V411H312V413ZM460 432V500H462V432H460ZM441 519H312V521H441V519ZM293 500V432H291V500H293ZM312 519C301.507 519 293 510.493 293 500H291C291 511.598 300.402 521 312 521V519ZM460 500C460 510.493 451.493 519 441 519V521C452.598 521 462 511.598 462 500H460ZM441 413C451.493 413 460 421.507 460 432H462C462 420.402 452.598 411 441 411V413ZM312 411C300.402 411 291 420.402 291 432H293C293 421.507 301.507 413 312 413V411Z" fill="black" fill-opacity="0.1"/>
</g>
<path d="M497.213 399.126C494.175 393.865 495.978 387.137 501.239 384.1L558.397 351.1C563.658 348.062 570.385 349.865 573.423 355.126V355.126C576.461 360.387 574.658 367.115 569.397 370.152L512.239 403.152C506.978 406.19 500.25 404.387 497.213 399.126V399.126Z" fill="#EFF8FF"/>
<path d="M504.574 394.876L510.636 391.376M510.636 391.376L505.855 390.095M510.636 391.376L509.355 396.157" stroke="#175CD3" stroke-width="1.5" stroke-linecap="round" stroke-linejoin="round"/>
<text transform="translate(511.765 380.332) rotate(-30)" fill="#175CD3" xml:space="preserve" style="white-space: pre" font-family="Inter" font-size="12" font-weight="500" letter-spacing="0em"><tspan x="0.447266" y="13.3636">5. GET `/`</tspan></text>
<line x1="479.75" y1="432.879" x2="611.386" y2="356.879" stroke="#F0F0F0"/>
<path d="M515.615 436.999C512.577 431.738 514.38 425.01 519.641 421.973L581.995 385.973C587.256 382.935 593.984 384.738 597.021 389.999V389.999C600.059 395.26 598.256 401.988 592.995 405.025L530.641 441.025C525.38 444.063 518.652 442.26 515.615 436.999V436.999Z" fill="#EFF8FF"/>
<path d="M529.038 429.249L522.976 432.749M522.976 432.749L527.757 434.03M522.976 432.749L524.257 427.968" stroke="#175CD3" stroke-width="1.5" stroke-linecap="round" stroke-linejoin="round"/>
<text transform="translate(530.167 418.205) rotate(-30)" fill="#175CD3" xml:space="preserve" style="white-space: pre" font-family="Inter" font-size="12" font-weight="500" letter-spacing="0em"><tspan x="0.230469" y="13.3636">6. RESP `/`</tspan></text>
<path d="M527.218 466.096C526.113 464.183 526.769 461.736 528.682 460.632L542.538 452.632C544.451 451.527 546.898 452.183 548.002 454.096L556.002 467.952C557.107 469.865 556.451 472.312 554.538 473.416L540.682 481.416C538.769 482.521 536.322 481.865 535.218 479.952L527.218 466.096Z" fill="#D1E9FF"/>
<g clip-path="url(#clip0_48_1072)">
<path d="M540.043 462.31L541.076 464.099C541.216 464.342 541.286 464.463 541.387 464.528C541.475 464.586 541.58 464.614 541.685 464.608C541.805 464.602 541.926 464.532 542.169 464.392L543.957 463.359M543.592 466.457L540.128 468.457M544.592 468.189L541.128 470.189M539.994 466.225L539.128 466.725M539.976 462.194L537.724 463.494C536.997 463.914 536.633 464.124 536.437 464.426C536.264 464.691 536.18 465.005 536.197 465.321C536.216 465.681 536.426 466.045 536.846 466.772L539.446 471.276C539.866 472.003 540.076 472.367 540.378 472.563C540.644 472.735 540.957 472.819 541.273 472.803C541.633 472.784 541.997 472.574 542.724 472.154L545.496 470.554C546.223 470.134 546.587 469.924 546.783 469.622C546.956 469.356 547.04 469.043 547.023 468.726C547.004 468.367 546.794 468.003 546.374 467.276L544.074 463.292L539.976 462.194Z" stroke="#1570EF" stroke-linecap="round" stroke-linejoin="round"/>
</g>
<text transform="translate(556.529 446.864) rotate(-30)" fill="#1570EF" xml:space="preserve" style="white-space: pre" font-family="Inter" font-size="14" font-weight="500" letter-spacing="0em"><tspan x="0.0888672" y="15.0909">index.html</tspan></text>
<path d="M544.079 151.026C547.116 145.765 553.844 143.962 559.105 147L614.531 179C619.792 182.038 621.595 188.765 618.557 194.026V194.026C615.519 199.287 608.792 201.09 603.531 198.053L548.105 166.053C542.844 163.015 541.041 156.287 544.079 151.026V151.026Z" fill="#ECFDF3"/>
<path d="M551.44 155.276L557.502 158.776M557.502 158.776L556.221 153.995M557.502 158.776L552.721 160.057" stroke="#027A48" stroke-width="1.5" stroke-linecap="round" stroke-linejoin="round"/>
<text transform="translate(567.631 154.232) rotate(30)" fill="#027A48" xml:space="preserve" style="white-space: pre" font-family="Inter" font-size="12" font-weight="500" letter-spacing="0em"><tspan x="0.425781" y="13.3636">1. GET `/`</tspan></text>
<line x1="505.25" y1="152.28" x2="636.886" y2="228.28" stroke="#F0F0F0"/>
<path d="M519.615 185.399C522.652 180.138 529.38 178.335 534.641 181.373L596.995 217.373C602.256 220.411 604.059 227.138 601.021 232.399V232.399C597.984 237.661 591.256 239.463 585.995 236.426L523.641 200.426C518.38 197.388 516.577 190.661 519.615 185.399V185.399Z" fill="#ECFDF3"/>
<path d="M533.038 193.149L526.976 189.649M526.976 189.649L528.257 194.43M526.976 189.649L531.757 188.368" stroke="#027A48" stroke-width="1.5" stroke-linecap="round" stroke-linejoin="round"/>
<text transform="translate(543.167 188.605) rotate(30)" fill="#027A48" xml:space="preserve" style="white-space: pre" font-family="Inter" font-size="12" font-weight="500" letter-spacing="0em"><tspan x="0.0839844" y="13.3636">4. RESP `/`</tspan></text>
<path d="M495.933 216.864C497.038 214.951 499.484 214.295 501.397 215.4L515.254 223.4C517.167 224.505 517.822 226.951 516.718 228.864L508.718 242.721C507.613 244.634 505.167 245.289 503.254 244.185L489.397 236.185C487.484 235.08 486.829 232.634 487.933 230.721L495.933 216.864Z" fill="#D1E9FF"/>
<g clip-path="url(#clip1_48_1072)">
<path d="M505.624 226.079L504.592 227.867C504.452 228.11 504.382 228.231 504.375 228.351C504.37 228.457 504.398 228.561 504.455 228.65C504.521 228.75 504.642 228.82 504.884 228.96L506.673 229.993M503.808 231.225L500.344 229.225M502.808 232.957L499.344 230.957M502.21 227.993L501.344 227.493M505.692 225.962L503.44 224.662C502.712 224.242 502.349 224.032 501.989 224.013C501.673 223.997 501.359 224.081 501.094 224.253C500.792 224.449 500.581 224.813 500.161 225.541L497.561 230.044C497.141 230.771 496.931 231.135 496.913 231.495C496.896 231.811 496.98 232.125 497.152 232.39C497.349 232.692 497.712 232.902 498.44 233.322L501.211 234.922C501.939 235.342 502.302 235.552 502.662 235.571C502.978 235.588 503.292 235.504 503.558 235.331C503.86 235.135 504.07 234.771 504.49 234.044L506.79 230.06L505.692 225.962Z" stroke="#1570EF" stroke-linecap="round" stroke-linejoin="round"/>
</g>
<text transform="translate(527.244 232.632) rotate(30)" fill="#1570EF" xml:space="preserve" style="white-space: pre" font-family="Inter" font-size="14" font-weight="500" letter-spacing="0em"><tspan x="0.0888672" y="15.0909">index.html</tspan></text>
<g filter="url(#filter2_d_48_1072)">
<path d="M653 267C653 255.954 661.954 247 673 247H836C847.046 247 856 255.954 856 267V335C856 346.046 847.046 355 836 355H673C661.954 355 653 346.046 653 335V267Z" fill="white" fill-opacity="0.6" shape-rendering="crispEdges"/>
<path d="M730.5 288C730.5 274.745 741.245 264 754.5 264V264C767.755 264 778.5 274.745 778.5 288V288C778.5 301.255 767.755 312 754.5 312V312C741.245 312 730.5 301.255 730.5 288V288Z" fill="#D1E9FF"/>
<path d="M761.5 285C761.5 288.866 758.366 292 754.5 292M761.5 285C761.5 281.134 758.366 278 754.5 278M761.5 285H747.5M754.5 292C750.634 292 747.5 288.866 747.5 285M754.5 292C756.251 290.083 757.247 287.596 757.301 285C757.247 282.404 756.251 279.917 754.5 278M754.5 292C752.749 290.083 751.755 287.596 751.701 285C751.755 282.404 752.749 279.917 754.5 278M754.5 292V294M747.5 285C747.5 281.134 750.634 278 754.5 278M756.5 296C756.5 297.105 755.605 298 754.5 298C753.395 298 752.5 297.105 752.5 296M756.5 296C756.5 294.895 755.605 294 754.5 294M756.5 296H763.5M752.5 296C752.5 294.895 753.395 294 754.5 294M752.5 296H745.5" stroke="#1570EF" stroke-width="1.66667" stroke-linecap="round" stroke-linejoin="round"/>
<path d="M754.5 308C743.454 308 734.5 299.046 734.5 288H726.5C726.5 303.464 739.036 316 754.5 316V308ZM774.5 288C774.5 299.046 765.546 308 754.5 308V316C769.964 316 782.5 303.464 782.5 288H774.5ZM754.5 268C765.546 268 774.5 276.954 774.5 288H782.5C782.5 272.536 769.964 260 754.5 260V268ZM754.5 260C739.036 260 726.5 272.536 726.5 288H734.5C734.5 276.954 743.454 268 754.5 268V260Z" fill="#EFF8FF"/>
<text fill="#175CD3" xml:space="preserve" style="white-space: pre" font-family="Product Sans" font-size="12" font-weight="bold" letter-spacing="0em"><tspan x="705.258" y="335.242">LOAD BALANCER</tspan></text>
<path d="M673 248H836V246H673V248ZM855 267V335H857V267H855ZM836 354H673V356H836V354ZM654 335V267H652V335H654ZM673 354C662.507 354 654 345.493 654 335H652C652 346.598 661.402 356 673 356V354ZM855 335C855 345.493 846.493 354 836 354V356C847.598 356 857 346.598 857 335H855ZM836 248C846.493 248 855 256.507 855 267H857C857 255.402 847.598 246 836 246V248ZM673 246C661.402 246 652 255.402 652 267H654C654 256.507 662.507 248 673 248V246Z" fill="black" fill-opacity="0.1"/>
</g>
<path d="M916 280C916 273.925 920.925 269 927 269H993C999.075 269 1004 273.925 1004 280V280C1004 286.075 999.075 291 993 291H927C920.925 291 916 286.075 916 280V280Z" fill="#ECFDF3"/>
<path d="M924.5 280H931.5M931.5 280L928 276.5M931.5 280L928 283.5" stroke="#027A48" stroke-width="1.5" stroke-linecap="round" stroke-linejoin="round"/>
<text fill="#027A48" xml:space="preserve" style="white-space: pre" font-family="Inter" font-size="12" font-weight="500" letter-spacing="0em"><tspan x="938.33" y="284.364">2. GET `/`</tspan></text>
<line x1="884" y1="300.5" x2="1036" y2="300.5" stroke="#F0F0F0"/>
<path d="M913 322C913 315.925 917.925 311 924 311H996C1002.08 311 1007 315.925 1007 322V322C1007 328.075 1002.08 333 996 333H924C917.925 333 913 328.075 913 322V322Z" fill="#ECFDF3"/>
<path d="M928.5 322H921.5M921.5 322L925 325.5M921.5 322L925 318.5" stroke="#027A48" stroke-width="1.5" stroke-linecap="round" stroke-linejoin="round"/>
<text fill="#027A48" xml:space="preserve" style="white-space: pre" font-family="Inter" font-size="12" font-weight="500" letter-spacing="0em"><tspan x="935.107" y="326.364">3. RESP `/`</tspan></text>
<g filter="url(#filter3_d_48_1072)">
<path d="M1064 267C1064 255.954 1072.95 247 1084 247H1196C1207.05 247 1216 255.954 1216 267V335C1216 346.046 1207.05 355 1196 355H1084C1072.95 355 1064 346.046 1064 335V267Z" fill="white" fill-opacity="0.6" shape-rendering="crispEdges"/>
<path d="M1116 288C1116 274.745 1126.75 264 1140 264V264C1153.25 264 1164 274.745 1164 288V288C1164 301.255 1153.25 312 1140 312V312C1126.75 312 1116 301.255 1116 288V288Z" fill="#D1E9FF"/>
<path d="M1134 282H1134.01M1134 294H1134.01M1133.2 286H1146.8C1147.92 286 1148.48 286 1148.91 285.782C1149.28 285.59 1149.59 285.284 1149.78 284.908C1150 284.48 1150 283.92 1150 282.8V281.2C1150 280.08 1150 279.52 1149.78 279.092C1149.59 278.716 1149.28 278.41 1148.91 278.218C1148.48 278 1147.92 278 1146.8 278H1133.2C1132.08 278 1131.52 278 1131.09 278.218C1130.72 278.41 1130.41 278.716 1130.22 279.092C1130 279.52 1130 280.08 1130 281.2V282.8C1130 283.92 1130 284.48 1130.22 284.908C1130.41 285.284 1130.72 285.59 1131.09 285.782C1131.52 286 1132.08 286 1133.2 286ZM1133.2 298H1146.8C1147.92 298 1148.48 298 1148.91 297.782C1149.28 297.59 1149.59 297.284 1149.78 296.908C1150 296.48 1150 295.92 1150 294.8V293.2C1150 292.08 1150 291.52 1149.78 291.092C1149.59 290.716 1149.28 290.41 1148.91 290.218C1148.48 290 1147.92 290 1146.8 290H1133.2C1132.08 290 1131.52 290 1131.09 290.218C1130.72 290.41 1130.41 290.716 1130.22 291.092C1130 291.52 1130 292.08 1130 293.2V294.8C1130 295.92 1130 296.48 1130.22 296.908C1130.41 297.284 1130.72 297.59 1131.09 297.782C1131.52 298 1132.08 298 1133.2 298Z" stroke="#1570EF" stroke-width="1.66667" stroke-linecap="round" stroke-linejoin="round"/>
<path d="M1140 308C1128.95 308 1120 299.046 1120 288H1112C1112 303.464 1124.54 316 1140 316V308ZM1160 288C1160 299.046 1151.05 308 1140 308V316C1155.46 316 1168 303.464 1168 288H1160ZM1140 268C1151.05 268 1160 276.954 1160 288H1168C1168 272.536 1155.46 260 1140 260V268ZM1140 260C1124.54 260 1112 272.536 1112 288H1120C1120 276.954 1128.95 268 1140 268V260Z" fill="#EFF8FF"/>
<text fill="#175CD3" xml:space="preserve" style="white-space: pre" font-family="Product Sans" font-size="12" font-weight="bold" letter-spacing="0em"><tspan x="1118.09" y="335.242">SERVER</tspan></text>
<path d="M1084 248H1196V246H1084V248ZM1215 267V335H1217V267H1215ZM1196 354H1084V356H1196V354ZM1065 335V267H1063V335H1065ZM1084 354C1073.51 354 1065 345.493 1065 335H1063C1063 346.598 1072.4 356 1084 356V354ZM1215 335C1215 345.493 1206.49 354 1196 354V356C1207.6 356 1217 346.598 1217 335H1215ZM1196 248C1206.49 248 1215 256.507 1215 267H1217C1217 255.402 1207.6 246 1196 246V248ZM1084 246C1072.4 246 1063 255.402 1063 267H1065C1065 256.507 1073.51 248 1084 248V246Z" fill="black" fill-opacity="0.1"/>
</g>
<path d="M66 124C66 117.925 70.9249 113 77 113H182C188.075 113 193 117.925 193 124V124C193 130.075 188.075 135 182 135H77C70.9249 135 66 130.075 66 124V124Z" fill="#ECFDF3"/>
<circle cx="76" cy="124" r="3" fill="#12B76A"/>
<text fill="#027A48" xml:space="preserve" style="white-space: pre" font-family="Inter" font-size="12" font-weight="500" letter-spacing="0em"><tspan x="86.334" y="128.364">FIRST &#38; SECOND</tspan></text>
<text fill="#8C8C8C" xml:space="preserve" style="white-space: pre" font-family="Inter" font-size="12" font-weight="500" letter-spacing="0em"><tspan x="66" y="154.364">Different browser access same </tspan><tspan x="66" y="172.364">resource</tspan></text>
<rect x="796" y="373" width="342" height="98" rx="10" fill="black" fill-opacity="0.02"/>
<text fill="#8C8C8C" xml:space="preserve" style="white-space: pre" font-family="Monaco" font-size="12" letter-spacing="0em"><tspan x="891.326" y="398.5">cache-control: public&#10;</tspan><tspan x="822.859" y="416.5">etag: &#34;4960408E160450EAE42D83507EB23730&#34;</tspan></text>
<path d="M818 444C818 437.925 822.925 433 829 433H866C872.075 433 877 437.925 877 444V444C877 450.075 872.075 455 866 455H829C822.925 455 818 450.075 818 444V444Z" fill="#ECFDF3"/>
<circle cx="828" cy="444" r="3" fill="#12B76A"/>
<text fill="#027A48" xml:space="preserve" style="white-space: pre" font-family="Inter" font-size="12" font-weight="500" letter-spacing="0em"><tspan x="838.318" y="448.364">RESP</tspan></text>
<path d="M915 435C915 432.791 916.791 431 919 431H935C937.209 431 939 432.791 939 435V451C939 453.209 937.209 455 935 455H919C916.791 455 915 453.209 915 451V435Z" fill="#D1E9FF"/>
<path d="M928 438.135V440.2C928 440.48 928 440.62 928.054 440.727C928.102 440.821 928.179 440.898 928.273 440.946C928.38 441 928.52 441 928.8 441H930.865M929 443.5H925M929 445.5H925M926 441.5H925M928 438H925.4C924.56 438 924.14 438 923.819 438.163C923.537 438.307 923.307 438.537 923.163 438.819C923 439.14 923 439.56 923 440.4V445.6C923 446.44 923 446.86 923.163 447.181C923.307 447.463 923.537 447.693 923.819 447.837C924.14 448 924.56 448 925.4 448H928.6C929.44 448 929.86 448 930.181 447.837C930.463 447.693 930.693 447.463 930.837 447.181C931 446.86 931 446.44 931 445.6V441L928 438Z" stroke="#1570EF" stroke-linecap="round" stroke-linejoin="round"/>
<text fill="#1570EF" xml:space="preserve" style="white-space: pre" font-family="Inter" font-size="14" font-weight="500" letter-spacing="0em"><tspan x="950.089" y="448.091">index.html</tspan></text>
<rect x="796.5" y="373.5" width="341" height="97" rx="9.5" stroke="black" stroke-opacity="0.08"/>
<text fill="#667085" xml:space="preserve" style="white-space: pre" font-family="Monaco" font-size="14" letter-spacing="0em"><tspan x="571" y="589.25">Notes:&#10;</tspan><tspan x="571" y="609.25">* Step 3 -&#62; Step 4: Load Balancer persisted `index.html` inside local storage&#10;</tspan><tspan x="571" y="629.25">* Step 5 -&#62; Step 6: Load Balancer response `index.html` directly from local     </tspan><tspan x="571" y="649.25">storage without refetch from upstream</tspan></text>
<defs>
<filter id="filter0_d_48_1072" x="282" y="96" width="187" height="128" filterUnits="userSpaceOnUse" color-interpolation-filters="sRGB">
<feFlood flood-opacity="0" result="BackgroundImageFix"/>
<feColorMatrix in="SourceAlpha" type="matrix" values="0 0 0 0 0 0 0 0 0 0 0 0 0 0 0 0 0 0 127 0" result="hardAlpha"/>
<feOffset dy="4"/>
<feGaussianBlur stdDeviation="5"/>
<feComposite in2="hardAlpha" operator="out"/>
<feColorMatrix type="matrix" values="0 0 0 0 0 0 0 0 0 0 0 0 0 0 0 0 0 0 0.05 0"/>
<feBlend mode="normal" in2="BackgroundImageFix" result="effect1_dropShadow_48_1072"/>
<feBlend mode="normal" in="SourceGraphic" in2="effect1_dropShadow_48_1072" result="shape"/>
</filter>
<filter id="filter1_d_48_1072" x="282" y="406" width="189" height="128" filterUnits="userSpaceOnUse" color-interpolation-filters="sRGB">
<feFlood flood-opacity="0" result="BackgroundImageFix"/>
<feColorMatrix in="SourceAlpha" type="matrix" values="0 0 0 0 0 0 0 0 0 0 0 0 0 0 0 0 0 0 127 0" result="hardAlpha"/>
<feOffset dy="4"/>
<feGaussianBlur stdDeviation="5"/>
<feComposite in2="hardAlpha" operator="out"/>
<feColorMatrix type="matrix" values="0 0 0 0 0 0 0 0 0 0 0 0 0 0 0 0 0 0 0.05 0"/>
<feBlend mode="normal" in2="BackgroundImageFix" result="effect1_dropShadow_48_1072"/>
<feBlend mode="normal" in="SourceGraphic" in2="effect1_dropShadow_48_1072" result="shape"/>
</filter>
<filter id="filter2_d_48_1072" x="643" y="241" width="223" height="128" filterUnits="userSpaceOnUse" color-interpolation-filters="sRGB">
<feFlood flood-opacity="0" result="BackgroundImageFix"/>
<feColorMatrix in="SourceAlpha" type="matrix" values="0 0 0 0 0 0 0 0 0 0 0 0 0 0 0 0 0 0 127 0" result="hardAlpha"/>
<feOffset dy="4"/>
<feGaussianBlur stdDeviation="5"/>
<feComposite in2="hardAlpha" operator="out"/>
<feColorMatrix type="matrix" values="0 0 0 0 0 0 0 0 0 0 0 0 0 0 0 0 0 0 0.05 0"/>
<feBlend mode="normal" in2="BackgroundImageFix" result="effect1_dropShadow_48_1072"/>
<feBlend mode="normal" in="SourceGraphic" in2="effect1_dropShadow_48_1072" result="shape"/>
</filter>
<filter id="filter3_d_48_1072" x="1054" y="241" width="172" height="128" filterUnits="userSpaceOnUse" color-interpolation-filters="sRGB">
<feFlood flood-opacity="0" result="BackgroundImageFix"/>
<feColorMatrix in="SourceAlpha" type="matrix" values="0 0 0 0 0 0 0 0 0 0 0 0 0 0 0 0 0 0 127 0" result="hardAlpha"/>
<feOffset dy="4"/>
<feGaussianBlur stdDeviation="5"/>
<feComposite in2="hardAlpha" operator="out"/>
<feColorMatrix type="matrix" values="0 0 0 0 0 0 0 0 0 0 0 0 0 0 0 0 0 0 0.05 0"/>
<feBlend mode="normal" in2="BackgroundImageFix" result="effect1_dropShadow_48_1072"/>
<feBlend mode="normal" in="SourceGraphic" in2="effect1_dropShadow_48_1072" result="shape"/>
</filter>
<clipPath id="clip0_48_1072">
<rect width="12" height="12" fill="white" transform="translate(533.414 464.828) rotate(-30)"/>
</clipPath>
<clipPath id="clip1_48_1072">
<rect width="12" height="12" fill="white" transform="translate(500.129 221.596) rotate(30)"/>
</clipPath>
</defs>
</svg>
