<svg width="1339" height="744" viewBox="0 0 1339 744" fill="none" xmlns="http://www.w3.org/2000/svg">
<g filter="url(#filter0_d_60_1286)">
<path d="M292 113C292 101.954 300.954 93 312 93H439C450.046 93 459 101.954 459 113V181C459 192.046 450.046 201 439 201H312C300.954 201 292 192.046 292 181V113Z" fill="white" fill-opacity="0.3" shape-rendering="crispEdges"/>
<path d="M351.5 134C351.5 120.745 362.245 110 375.5 110V110C388.755 110 399.5 120.745 399.5 134V134C399.5 147.255 388.755 158 375.5 158V158C362.245 158 351.5 147.255 351.5 134V134Z" fill="#175CD3"/>
<path d="M385.5 131H365.5M365.5 129.8L365.5 138.2C365.5 139.88 365.5 140.72 365.827 141.362C366.115 141.926 366.574 142.385 367.138 142.673C367.78 143 368.62 143 370.3 143H380.7C382.38 143 383.22 143 383.862 142.673C384.426 142.385 384.885 141.926 385.173 141.362C385.5 140.72 385.5 139.88 385.5 138.2V129.8C385.5 128.12 385.5 127.28 385.173 126.638C384.885 126.074 384.426 125.615 383.862 125.327C383.22 125 382.38 125 380.7 125L370.3 125C368.62 125 367.78 125 367.138 125.327C366.574 125.615 366.115 126.074 365.827 126.638C365.5 127.28 365.5 128.12 365.5 129.8Z" stroke="#B2DDFF" stroke-width="1.66667" stroke-linecap="round" stroke-linejoin="round"/>
<path d="M375.5 154C364.454 154 355.5 145.046 355.5 134H347.5C347.5 149.464 360.036 162 375.5 162V154ZM395.5 134C395.5 145.046 386.546 154 375.5 154V162C390.964 162 403.5 149.464 403.5 134H395.5ZM375.5 114C386.546 114 395.5 122.954 395.5 134H403.5C403.5 118.536 390.964 106 375.5 106V114ZM375.5 106C360.036 106 347.5 118.536 347.5 134H355.5C355.5 122.954 364.454 114 375.5 114V106Z" fill="#1849A9"/>
<text fill="#D1E0FF" xml:space="preserve" style="white-space: pre" font-family="Product Sans" font-size="12" font-weight="bold" letter-spacing="0em"><tspan x="344.281" y="181.242">BROWSER1</tspan></text>
<path d="M312 94H439V92H312V94ZM458 113V181H460V113H458ZM439 200H312V202H439V200ZM293 181V113H291V181H293ZM312 200C301.507 200 293 191.493 293 181H291C291 192.598 300.402 202 312 202V200ZM458 181C458 191.493 449.493 200 439 200V202C450.598 202 460 192.598 460 181H458ZM439 94C449.493 94 458 102.507 458 113H460C460 101.402 450.598 92 439 92V94ZM312 92C300.402 92 291 101.402 291 113H293C293 102.507 301.507 94 312 94V92Z" fill="white" fill-opacity="0.2"/>
</g>
<g filter="url(#filter1_d_60_1286)">
<path d="M292 423C292 411.954 300.954 403 312 403H441C452.046 403 461 411.954 461 423V491C461 502.046 452.046 511 441 511H312C300.954 511 292 502.046 292 491V423Z" fill="white" fill-opacity="0.3" shape-rendering="crispEdges"/>
<path d="M352.5 444C352.5 430.745 363.245 420 376.5 420V420C389.755 420 400.5 430.745 400.5 444V444C400.5 457.255 389.755 468 376.5 468V468C363.245 468 352.5 457.255 352.5 444V444Z" fill="#175CD3"/>
<path d="M386.5 441H366.5M366.5 439.8L366.5 448.2C366.5 449.88 366.5 450.72 366.827 451.362C367.115 451.926 367.574 452.385 368.138 452.673C368.78 453 369.62 453 371.3 453H381.7C383.38 453 384.22 453 384.862 452.673C385.426 452.385 385.885 451.926 386.173 451.362C386.5 450.72 386.5 449.88 386.5 448.2V439.8C386.5 438.12 386.5 437.28 386.173 436.638C385.885 436.074 385.426 435.615 384.862 435.327C384.22 435 383.38 435 381.7 435L371.3 435C369.62 435 368.78 435 368.138 435.327C367.574 435.615 367.115 436.074 366.827 436.638C366.5 437.28 366.5 438.12 366.5 439.8Z" stroke="#B2DDFF" stroke-width="1.66667" stroke-linecap="round" stroke-linejoin="round"/>
<path d="M376.5 464C365.454 464 356.5 455.046 356.5 444H348.5C348.5 459.464 361.036 472 376.5 472V464ZM396.5 444C396.5 455.046 387.546 464 376.5 464V472C391.964 472 404.5 459.464 404.5 444H396.5ZM376.5 424C387.546 424 396.5 432.954 396.5 444H404.5C404.5 428.536 391.964 416 376.5 416V424ZM376.5 416C361.036 416 348.5 428.536 348.5 444H356.5C356.5 432.954 365.454 424 376.5 424V416Z" fill="#1849A9"/>
<text fill="#D1E0FF" xml:space="preserve" style="white-space: pre" font-family="Product Sans" font-size="12" font-weight="bold" letter-spacing="0em"><tspan x="344.496" y="491.242">BROWSER2</tspan></text>
<path d="M312 404H441V402H312V404ZM460 423V491H462V423H460ZM441 510H312V512H441V510ZM293 491V423H291V491H293ZM312 510C301.507 510 293 501.493 293 491H291C291 502.598 300.402 512 312 512V510ZM460 491C460 501.493 451.493 510 441 510V512C452.598 512 462 502.598 462 491H460ZM441 404C451.493 404 460 412.507 460 423H462C462 411.402 452.598 402 441 402V404ZM312 402C300.402 402 291 411.402 291 423H293C293 412.507 301.507 404 312 404V402Z" fill="white" fill-opacity="0.2"/>
</g>
<path d="M497.213 390.126C494.175 384.865 495.978 378.137 501.239 375.1L558.397 342.1C563.658 339.062 570.385 340.865 573.423 346.126V346.126C576.461 351.387 574.658 358.115 569.397 361.152L512.239 394.152C506.978 397.19 500.25 395.387 497.213 390.126V390.126Z" fill="#0B4A6F"/>
<path d="M504.574 385.876L510.636 382.376M510.636 382.376L505.855 381.095M510.636 382.376L509.355 387.157" stroke="#84CAFF" stroke-width="1.5" stroke-linecap="round" stroke-linejoin="round"/>
<text transform="translate(511.765 371.332) rotate(-30)" fill="#84CAFF" xml:space="preserve" style="white-space: pre" font-family="Inter" font-size="12" font-weight="500" letter-spacing="0em"><tspan x="0.447266" y="13.3636">5. GET `/`</tspan></text>
<line x1="479.75" y1="423.879" x2="611.386" y2="347.879" stroke="#434343"/>
<path d="M515.615 427.999C512.577 422.738 514.38 416.01 519.641 412.973L581.995 376.973C587.256 373.935 593.984 375.738 597.021 380.999V380.999C600.059 386.26 598.256 392.988 592.995 396.025L530.641 432.025C525.38 435.063 518.652 433.26 515.615 427.999V427.999Z" fill="#0B4A6F"/>
<path d="M529.038 420.249L522.976 423.749M522.976 423.749L527.757 425.03M522.976 423.749L524.257 418.968" stroke="#84CAFF" stroke-width="1.5" stroke-linecap="round" stroke-linejoin="round"/>
<text transform="translate(530.167 409.205) rotate(-30)" fill="#84CAFF" xml:space="preserve" style="white-space: pre" font-family="Inter" font-size="12" font-weight="500" letter-spacing="0em"><tspan x="0.183594" y="13.3636">8. RESP `/`</tspan></text>
<path d="M527.218 457.096C526.113 455.183 526.768 452.736 528.682 451.632L542.538 443.632C544.451 442.527 546.898 443.183 548.002 445.096L556.002 458.952C557.107 460.865 556.451 463.312 554.538 464.416L540.682 472.416C538.768 473.521 536.322 472.865 535.218 470.952L527.218 457.096Z" fill="#175CD3"/>
<g clip-path="url(#clip0_60_1286)">
<path d="M540.043 453.31L541.076 455.099C541.216 455.341 541.286 455.463 541.387 455.528C541.475 455.586 541.58 455.614 541.685 455.608C541.805 455.602 541.926 455.532 542.169 455.392L543.957 454.359M543.592 457.457L540.128 459.457M544.592 459.189L541.128 461.189M539.994 457.225L539.128 457.725M539.976 453.194L537.724 454.494C536.997 454.914 536.633 455.124 536.437 455.426C536.264 455.691 536.18 456.005 536.197 456.321C536.216 456.681 536.426 457.045 536.846 457.772L539.446 462.275C539.866 463.003 540.076 463.367 540.378 463.563C540.643 463.735 540.957 463.819 541.273 463.803C541.633 463.784 541.997 463.574 542.724 463.154L545.495 461.554C546.223 461.134 546.587 460.924 546.783 460.622C546.955 460.356 547.039 460.043 547.023 459.726C547.004 459.367 546.794 459.003 546.374 458.275L544.074 454.292L539.976 453.194Z" stroke="#D1E9FF" stroke-linecap="round" stroke-linejoin="round"/>
</g>
<text transform="translate(556.528 437.864) rotate(-30)" fill="#B2DDFF" xml:space="preserve" style="white-space: pre" font-family="Inter" font-size="14" font-weight="500" letter-spacing="0em"><tspan x="0.0888672" y="15.0909">index.html</tspan></text>
<path d="M544.079 142.026C547.116 136.765 553.844 134.962 559.105 138L614.531 170C619.792 173.038 621.595 179.765 618.557 185.026V185.026C615.519 190.287 608.792 192.09 603.531 189.053L548.105 157.053C542.844 154.015 541.041 147.287 544.079 142.026V142.026Z" fill="#05603A"/>
<path d="M551.44 146.276L557.502 149.776M557.502 149.776L556.221 144.995M557.502 149.776L552.721 151.057" stroke="#6CE9A6" stroke-width="1.5" stroke-linecap="round" stroke-linejoin="round"/>
<text transform="translate(567.631 145.232) rotate(30)" fill="#6CE9A6" xml:space="preserve" style="white-space: pre" font-family="Inter" font-size="12" font-weight="500" letter-spacing="0em"><tspan x="0.425781" y="13.3636">1. GET `/`</tspan></text>
<line x1="505.25" y1="143.28" x2="636.886" y2="219.28" stroke="#434343"/>
<path d="M519.615 176.399C522.652 171.138 529.38 169.335 534.641 172.373L596.995 208.373C602.256 211.411 604.059 218.138 601.021 223.399V223.399C597.984 228.661 591.256 230.463 585.995 227.426L523.641 191.426C518.38 188.388 516.577 181.661 519.615 176.399V176.399Z" fill="#05603A"/>
<path d="M533.038 184.149L526.976 180.649M526.976 180.649L528.257 185.43M526.976 180.649L531.757 179.368" stroke="#6CE9A6" stroke-width="1.5" stroke-linecap="round" stroke-linejoin="round"/>
<text transform="translate(543.167 179.605) rotate(30)" fill="#6CE9A6" xml:space="preserve" style="white-space: pre" font-family="Inter" font-size="12" font-weight="500" letter-spacing="0em"><tspan x="0.0839844" y="13.3636">4. RESP `/`</tspan></text>
<path d="M495.933 207.864C497.038 205.951 499.484 205.295 501.397 206.4L515.254 214.4C517.167 215.504 517.822 217.951 516.718 219.864L508.718 233.72C507.613 235.634 505.167 236.289 503.254 235.185L489.397 227.185C487.484 226.08 486.829 223.634 487.933 221.72L495.933 207.864Z" fill="#175CD3"/>
<g clip-path="url(#clip1_60_1286)">
<path d="M505.624 217.079L504.591 218.867C504.451 219.11 504.381 219.231 504.375 219.351C504.37 219.456 504.398 219.561 504.455 219.649C504.52 219.75 504.642 219.82 504.884 219.96L506.673 220.993M503.807 222.225L500.343 220.225M502.807 223.957L499.343 221.957M502.209 218.993L501.343 218.493M505.691 216.962L503.44 215.662C502.712 215.242 502.348 215.032 501.989 215.013C501.673 214.996 501.359 215.08 501.093 215.253C500.791 215.449 500.581 215.813 500.161 216.54L497.561 221.044C497.141 221.771 496.931 222.135 496.912 222.495C496.896 222.811 496.98 223.124 497.152 223.39C497.348 223.692 497.712 223.902 498.44 224.322L501.211 225.922C501.939 226.342 502.302 226.552 502.662 226.571C502.978 226.588 503.292 226.504 503.557 226.331C503.859 226.135 504.069 225.771 504.49 225.044L506.79 221.06L505.691 216.962Z" stroke="#D1E9FF" stroke-linecap="round" stroke-linejoin="round"/>
</g>
<text transform="translate(527.244 223.632) rotate(30)" fill="#B2DDFF" xml:space="preserve" style="white-space: pre" font-family="Inter" font-size="14" font-weight="500" letter-spacing="0em"><tspan x="0.0888672" y="15.0909">index.html</tspan></text>
<g filter="url(#filter2_d_60_1286)">
<path d="M653 267C653 255.954 661.954 247 673 247H836C847.046 247 856 255.954 856 267V393C856 404.046 847.046 413 836 413H673C661.954 413 653 404.046 653 393V267Z" fill="white" fill-opacity="0.3" shape-rendering="crispEdges"/>
<path d="M730.5 317C730.5 303.745 741.245 293 754.5 293V293C767.755 293 778.5 303.745 778.5 317V317C778.5 330.255 767.755 341 754.5 341V341C741.245 341 730.5 330.255 730.5 317V317Z" fill="#175CD3"/>
<path d="M761.5 314C761.5 317.866 758.366 321 754.5 321M761.5 314C761.5 310.134 758.366 307 754.5 307M761.5 314H747.5M754.5 321C750.634 321 747.5 317.866 747.5 314M754.5 321C756.251 319.083 757.247 316.596 757.301 314C757.247 311.404 756.251 308.917 754.5 307M754.5 321C752.749 319.083 751.755 316.596 751.701 314C751.755 311.404 752.749 308.917 754.5 307M754.5 321V323M747.5 314C747.5 310.134 750.634 307 754.5 307M756.5 325C756.5 326.105 755.605 327 754.5 327C753.395 327 752.5 326.105 752.5 325M756.5 325C756.5 323.895 755.605 323 754.5 323M756.5 325H763.5M752.5 325C752.5 323.895 753.395 323 754.5 323M752.5 325H745.5" stroke="#D1E0FF" stroke-width="2" stroke-linecap="round" stroke-linejoin="round"/>
<path d="M754.5 337C743.454 337 734.5 328.046 734.5 317H726.5C726.5 332.464 739.036 345 754.5 345V337ZM774.5 317C774.5 328.046 765.546 337 754.5 337V345C769.964 345 782.5 332.464 782.5 317H774.5ZM754.5 297C765.546 297 774.5 305.954 774.5 317H782.5C782.5 301.536 769.964 289 754.5 289V297ZM754.5 289C739.036 289 726.5 301.536 726.5 317H734.5C734.5 305.954 743.454 297 754.5 297V289Z" fill="#1849A9"/>
<text fill="#D1E0FF" xml:space="preserve" style="white-space: pre" font-family="Product Sans" font-size="12" font-weight="bold" letter-spacing="0em"><tspan x="705.258" y="364.242">LOAD BALANCER</tspan></text>
<path d="M673 248H836V246H673V248ZM855 267V393H857V267H855ZM836 412H673V414H836V412ZM654 393V267H652V393H654ZM673 412C662.507 412 654 403.493 654 393H652C652 404.598 661.402 414 673 414V412ZM855 393C855 403.493 846.493 412 836 412V414C847.598 414 857 404.598 857 393H855ZM836 248C846.493 248 855 256.507 855 267H857C857 255.402 847.598 246 836 246V248ZM673 246C661.402 246 652 255.402 652 267H654C654 256.507 662.507 248 673 248V246Z" fill="white" fill-opacity="0.2"/>
</g>
<path d="M916 263C916 256.925 920.925 252 927 252H993C999.075 252 1004 256.925 1004 263V263C1004 269.075 999.075 274 993 274H927C920.925 274 916 269.075 916 263V263Z" fill="#05603A"/>
<path d="M924.5 263H931.5M931.5 263L928 259.5M931.5 263L928 266.5" stroke="#6CE9A6" stroke-width="1.5" stroke-linecap="round" stroke-linejoin="round"/>
<text fill="#6CE9A6" xml:space="preserve" style="white-space: pre" font-family="Inter" font-size="12" font-weight="500" letter-spacing="0em"><tspan x="938.33" y="267.364">2. GET `/`</tspan></text>
<line x1="884" y1="283.5" x2="1036" y2="283.5" stroke="#434343"/>
<path d="M913 305C913 298.925 917.925 294 924 294H996C1002.08 294 1007 298.925 1007 305V305C1007 311.075 1002.08 316 996 316H924C917.925 316 913 311.075 913 305V305Z" fill="#05603A"/>
<path d="M928.5 305H921.5M921.5 305L925 308.5M921.5 305L925 301.5" stroke="#6CE9A6" stroke-width="1.5" stroke-linecap="round" stroke-linejoin="round"/>
<text fill="#6CE9A6" xml:space="preserve" style="white-space: pre" font-family="Inter" font-size="12" font-weight="500" letter-spacing="0em"><tspan x="935.107" y="309.364">3. RESP `/`</tspan></text>
<path d="M916 355C916 348.925 920.925 344 927 344H993C999.075 344 1004 348.925 1004 355V355C1004 361.075 999.075 366 993 366H927C920.925 366 916 361.075 916 355V355Z" fill="#0B4A6F"/>
<path d="M924.5 355H931.5M931.5 355L928 351.5M931.5 355L928 358.5" stroke="#84CAFF" stroke-width="1.5" stroke-linecap="round" stroke-linejoin="round"/>
<text fill="#84CAFF" xml:space="preserve" style="white-space: pre" font-family="Inter" font-size="12" font-weight="500" letter-spacing="0em"><tspan x="938.395" y="359.364">6. GET `/`</tspan></text>
<line x1="884" y1="375.5" x2="1036" y2="375.5" stroke="#434343"/>
<path d="M914 397C914 390.925 918.925 386 925 386H995C1001.08 386 1006 390.925 1006 397V397C1006 403.075 1001.08 408 995 408H925C918.925 408 914 403.075 914 397V397Z" fill="#0B4A6F"/>
<path d="M929.5 397H922.5M922.5 397L926 400.5M922.5 397L926 393.5" stroke="#84CAFF" stroke-width="1.5" stroke-linecap="round" stroke-linejoin="round"/>
<text fill="#84CAFF" xml:space="preserve" style="white-space: pre" font-family="Inter" font-size="12" font-weight="500" letter-spacing="0em"><tspan x="936.121" y="401.364">7. RESP `/`</tspan></text>
<g filter="url(#filter3_d_60_1286)">
<path d="M1064 267C1064 255.954 1072.95 247 1084 247H1247C1258.05 247 1267 255.954 1267 267V393C1267 404.046 1258.05 413 1247 413H1084C1072.95 413 1064 404.046 1064 393V267Z" fill="white" fill-opacity="0.3" shape-rendering="crispEdges"/>
<path d="M1141.5 317C1141.5 303.745 1152.25 293 1165.5 293V293C1178.75 293 1189.5 303.745 1189.5 317V317C1189.5 330.255 1178.75 341 1165.5 341V341C1152.25 341 1141.5 330.255 1141.5 317V317Z" fill="#175CD3"/>
<path d="M1159.5 311H1159.51M1159.5 323H1159.51M1158.7 315H1172.3C1173.42 315 1173.98 315 1174.41 314.782C1174.78 314.59 1175.09 314.284 1175.28 313.908C1175.5 313.48 1175.5 312.92 1175.5 311.8V310.2C1175.5 309.08 1175.5 308.52 1175.28 308.092C1175.09 307.716 1174.78 307.41 1174.41 307.218C1173.98 307 1173.42 307 1172.3 307H1158.7C1157.58 307 1157.02 307 1156.59 307.218C1156.22 307.41 1155.91 307.716 1155.72 308.092C1155.5 308.52 1155.5 309.08 1155.5 310.2V311.8C1155.5 312.92 1155.5 313.48 1155.72 313.908C1155.91 314.284 1156.22 314.59 1156.59 314.782C1157.02 315 1157.58 315 1158.7 315ZM1158.7 327H1172.3C1173.42 327 1173.98 327 1174.41 326.782C1174.78 326.59 1175.09 326.284 1175.28 325.908C1175.5 325.48 1175.5 324.92 1175.5 323.8V322.2C1175.5 321.08 1175.5 320.52 1175.28 320.092C1175.09 319.716 1174.78 319.41 1174.41 319.218C1173.98 319 1173.42 319 1172.3 319H1158.7C1157.58 319 1157.02 319 1156.59 319.218C1156.22 319.41 1155.91 319.716 1155.72 320.092C1155.5 320.52 1155.5 321.08 1155.5 322.2V323.8C1155.5 324.92 1155.5 325.48 1155.72 325.908C1155.91 326.284 1156.22 326.59 1156.59 326.782C1157.02 327 1157.58 327 1158.7 327Z" stroke="#D1E0FF" stroke-width="2" stroke-linecap="round" stroke-linejoin="round"/>
<path d="M1165.5 337C1154.45 337 1145.5 328.046 1145.5 317H1137.5C1137.5 332.464 1150.04 345 1165.5 345V337ZM1185.5 317C1185.5 328.046 1176.55 337 1165.5 337V345C1180.96 345 1193.5 332.464 1193.5 317H1185.5ZM1165.5 297C1176.55 297 1185.5 305.954 1185.5 317H1193.5C1193.5 301.536 1180.96 289 1165.5 289V297ZM1165.5 289C1150.04 289 1137.5 301.536 1137.5 317H1145.5C1145.5 305.954 1154.45 297 1165.5 297V289Z" fill="#1849A9"/>
<text fill="#D1E0FF" xml:space="preserve" style="white-space: pre" font-family="Product Sans" font-size="12" font-weight="bold" letter-spacing="0em"><tspan x="1143.59" y="364.242">SERVER</tspan></text>
<path d="M1084 248H1247V246H1084V248ZM1266 267V393H1268V267H1266ZM1247 412H1084V414H1247V412ZM1065 393V267H1063V393H1065ZM1084 412C1073.51 412 1065 403.493 1065 393H1063C1063 404.598 1072.4 414 1084 414V412ZM1266 393C1266 403.493 1257.49 412 1247 412V414C1258.6 414 1268 404.598 1268 393H1266ZM1247 248C1257.49 248 1266 256.507 1266 267H1268C1268 255.402 1258.6 246 1247 246V248ZM1084 246C1072.4 246 1063 255.402 1063 267H1065C1065 256.507 1073.51 248 1084 248V246Z" fill="white" fill-opacity="0.2"/>
</g>
<path d="M66 124C66 117.925 70.9249 113 77 113H182C188.075 113 193 117.925 193 124V124C193 130.075 188.075 135 182 135H77C70.9249 135 66 130.075 66 124V124Z" fill="#027A48"/>
<circle cx="76" cy="124" r="3" fill="#6CE9A6"/>
<text fill="#6CE9A6" xml:space="preserve" style="white-space: pre" font-family="Inter" font-size="12" font-weight="500" letter-spacing="0em"><tspan x="86.334" y="128.364">FIRST &#38; SECOND</tspan></text>
<text fill="#8C8C8C" xml:space="preserve" style="white-space: pre" font-family="Inter" font-size="12" font-weight="500" letter-spacing="0em"><tspan x="66" y="154.364">Different browser access same </tspan><tspan x="66" y="172.364">resource</tspan></text>
<rect x="800" y="434" width="342" height="98" rx="10" fill="white" fill-opacity="0.1"/>
<text fill="#BFBFBF" xml:space="preserve" style="white-space: pre" font-family="Monaco" font-size="12" letter-spacing="0em"><tspan x="895.326" y="459.5">cache-control: public&#10;</tspan><tspan x="826.859" y="477.5">etag: &#34;4960408E160450EAE42D83507EB23730&#34;</tspan></text>
<path d="M822 505C822 498.925 826.925 494 833 494H870C876.075 494 881 498.925 881 505V505C881 511.075 876.075 516 870 516H833C826.925 516 822 511.075 822 505V505Z" fill="#05603A"/>
<circle cx="832" cy="505" r="3" fill="#6CE9A6"/>
<text fill="#6CE9A6" xml:space="preserve" style="white-space: pre" font-family="Inter" font-size="12" font-weight="500" letter-spacing="0em"><tspan x="842.318" y="509.364">RESP</tspan></text>
<path d="M919 496C919 493.791 920.791 492 923 492H939C941.209 492 943 493.791 943 496V512C943 514.209 941.209 516 939 516H923C920.791 516 919 514.209 919 512V496Z" fill="#175CD3"/>
<path d="M932 499.135V501.2C932 501.48 932 501.62 932.054 501.727C932.102 501.821 932.179 501.898 932.273 501.946C932.38 502 932.52 502 932.8 502H934.865M933 504.5H929M933 506.5H929M930 502.5H929M932 499H929.4C928.56 499 928.14 499 927.819 499.163C927.537 499.307 927.307 499.537 927.163 499.819C927 500.14 927 500.56 927 501.4V506.6C927 507.44 927 507.86 927.163 508.181C927.307 508.463 927.537 508.693 927.819 508.837C928.14 509 928.56 509 929.4 509H932.6C933.44 509 933.86 509 934.181 508.837C934.463 508.693 934.693 508.463 934.837 508.181C935 507.86 935 507.44 935 506.6V502L932 499Z" stroke="#D1E9FF" stroke-linecap="round" stroke-linejoin="round"/>
<text fill="#B2DDFF" xml:space="preserve" style="white-space: pre" font-family="Inter" font-size="14" font-weight="500" letter-spacing="0em"><tspan x="954.089" y="509.091">index.html</tspan></text>
<rect x="800.5" y="434.5" width="341" height="97" rx="9.5" stroke="white" stroke-opacity="0.2"/>
<text fill="#98A2B3" xml:space="preserve" style="white-space: pre" font-family="Monaco" font-size="14" letter-spacing="0em"><tspan x="571" y="589.25">Notes: &#10;</tspan><tspan x="571" y="609.25">* Step 2 -&#62; Step 3: Load Balancer reverse proxy files without cache locally &#10;</tspan><tspan x="571" y="629.25">* Step 6 -&#62; Step 7: Load Balancer reverse proxy files without cache locally</tspan></text>
<defs>
<filter id="filter0_d_60_1286" x="282" y="87" width="187" height="128" filterUnits="userSpaceOnUse" color-interpolation-filters="sRGB">
<feFlood flood-opacity="0" result="BackgroundImageFix"/>
<feColorMatrix in="SourceAlpha" type="matrix" values="0 0 0 0 0 0 0 0 0 0 0 0 0 0 0 0 0 0 127 0" result="hardAlpha"/>
<feOffset dy="4"/>
<feGaussianBlur stdDeviation="5"/>
<feComposite in2="hardAlpha" operator="out"/>
<feColorMatrix type="matrix" values="0 0 0 0 1 0 0 0 0 1 0 0 0 0 1 0 0 0 0.2 0"/>
<feBlend mode="normal" in2="BackgroundImageFix" result="effect1_dropShadow_60_1286"/>
<feBlend mode="normal" in="SourceGraphic" in2="effect1_dropShadow_60_1286" result="shape"/>
</filter>
<filter id="filter1_d_60_1286" x="282" y="397" width="189" height="128" filterUnits="userSpaceOnUse" color-interpolation-filters="sRGB">
<feFlood flood-opacity="0" result="BackgroundImageFix"/>
<feColorMatrix in="SourceAlpha" type="matrix" values="0 0 0 0 0 0 0 0 0 0 0 0 0 0 0 0 0 0 127 0" result="hardAlpha"/>
<feOffset dy="4"/>
<feGaussianBlur stdDeviation="5"/>
<feComposite in2="hardAlpha" operator="out"/>
<feColorMatrix type="matrix" values="0 0 0 0 1 0 0 0 0 1 0 0 0 0 1 0 0 0 0.2 0"/>
<feBlend mode="normal" in2="BackgroundImageFix" result="effect1_dropShadow_60_1286"/>
<feBlend mode="normal" in="SourceGraphic" in2="effect1_dropShadow_60_1286" result="shape"/>
</filter>
<filter id="filter2_d_60_1286" x="643" y="241" width="223" height="186" filterUnits="userSpaceOnUse" color-interpolation-filters="sRGB">
<feFlood flood-opacity="0" result="BackgroundImageFix"/>
<feColorMatrix in="SourceAlpha" type="matrix" values="0 0 0 0 0 0 0 0 0 0 0 0 0 0 0 0 0 0 127 0" result="hardAlpha"/>
<feOffset dy="4"/>
<feGaussianBlur stdDeviation="5"/>
<feComposite in2="hardAlpha" operator="out"/>
<feColorMatrix type="matrix" values="0 0 0 0 1 0 0 0 0 1 0 0 0 0 1 0 0 0 0.2 0"/>
<feBlend mode="normal" in2="BackgroundImageFix" result="effect1_dropShadow_60_1286"/>
<feBlend mode="normal" in="SourceGraphic" in2="effect1_dropShadow_60_1286" result="shape"/>
</filter>
<filter id="filter3_d_60_1286" x="1054" y="241" width="223" height="186" filterUnits="userSpaceOnUse" color-interpolation-filters="sRGB">
<feFlood flood-opacity="0" result="BackgroundImageFix"/>
<feColorMatrix in="SourceAlpha" type="matrix" values="0 0 0 0 0 0 0 0 0 0 0 0 0 0 0 0 0 0 127 0" result="hardAlpha"/>
<feOffset dy="4"/>
<feGaussianBlur stdDeviation="5"/>
<feComposite in2="hardAlpha" operator="out"/>
<feColorMatrix type="matrix" values="0 0 0 0 1 0 0 0 0 1 0 0 0 0 1 0 0 0 0.2 0"/>
<feBlend mode="normal" in2="BackgroundImageFix" result="effect1_dropShadow_60_1286"/>
<feBlend mode="normal" in="SourceGraphic" in2="effect1_dropShadow_60_1286" result="shape"/>
</filter>
<clipPath id="clip0_60_1286">
<rect width="12" height="12" fill="white" transform="translate(533.414 455.828) rotate(-30)"/>
</clipPath>
<clipPath id="clip1_60_1286">
<rect width="12" height="12" fill="white" transform="translate(500.129 212.596) rotate(30)"/>
</clipPath>
</defs>
</svg>
