<svg width="1339" height="898" viewBox="0 0 1339 898" fill="none" xmlns="http://www.w3.org/2000/svg">
<g filter="url(#filter0_d_38_874)">
<path d="M287 111C287 99.9543 295.954 91 307 91H429C440.046 91 449 99.9543 449 111V179C449 190.046 440.046 199 429 199H307C295.954 199 287 190.046 287 179V111Z" fill="white" fill-opacity="0.6" shape-rendering="crispEdges"/>
<path d="M344 132C344 118.745 354.745 108 368 108C381.255 108 392 118.745 392 132C392 145.255 381.255 156 368 156C354.745 156 344 145.255 344 132Z" fill="#D1E9FF"/>
<path d="M378 129H358M358 127.8L358 136.2C358 137.88 358 138.72 358.327 139.362C358.615 139.926 359.074 140.385 359.638 140.673C360.28 141 361.12 141 362.8 141H373.2C374.88 141 375.72 141 376.362 140.673C376.926 140.385 377.385 139.926 377.673 139.362C378 138.72 378 137.88 378 136.2V127.8C378 126.12 378 125.28 377.673 124.638C377.385 124.074 376.926 123.615 376.362 123.327C375.72 123 374.88 123 373.2 123L362.8 123C361.12 123 360.28 123 359.638 123.327C359.074 123.615 358.615 124.074 358.327 124.638C358 125.28 358 126.12 358 127.8Z" stroke="#1570EF" stroke-width="1.66667" stroke-linecap="round" stroke-linejoin="round"/>
<path d="M368 152C356.954 152 348 143.046 348 132H340C340 147.464 352.536 160 368 160V152ZM388 132C388 143.046 379.046 152 368 152V160C383.464 160 396 147.464 396 132H388ZM368 112C379.046 112 388 120.954 388 132H396C396 116.536 383.464 104 368 104V112ZM368 104C352.536 104 340 116.536 340 132H348C348 120.954 356.954 112 368 112V104Z" fill="#EFF8FF"/>
<text fill="#175CD3" xml:space="preserve" style="white-space: pre" font-family="Product Sans" font-size="12" font-weight="bold" letter-spacing="0em"><tspan x="339.266" y="179.242">BROWSER</tspan></text>
<path d="M307 92H429V90H307V92ZM448 111V179H450V111H448ZM429 198H307V200H429V198ZM288 179V111H286V179H288ZM307 198C296.507 198 288 189.493 288 179H286C286 190.598 295.402 200 307 200V198ZM448 179C448 189.493 439.493 198 429 198V200C440.598 200 450 190.598 450 179H448ZM429 92C439.493 92 448 100.507 448 111H450C450 99.402 440.598 90 429 90V92ZM307 90C295.402 90 286 99.402 286 111H288C288 100.507 296.507 92 307 92V90Z" fill="black" fill-opacity="0.1"/>
</g>
<path d="M510 124C510 117.925 514.925 113 521 113H585C591.075 113 596 117.925 596 124C596 130.075 591.075 135 585 135H521C514.925 135 510 130.075 510 124Z" fill="#ECFDF3"/>
<path d="M518.5 124H525.5M525.5 124L522 120.5M525.5 124L522 127.5" stroke="#027A48" stroke-width="1.5" stroke-linecap="round" stroke-linejoin="round"/>
<text fill="#027A48" xml:space="preserve" style="white-space: pre" font-family="Inter" font-size="12" font-weight="500" letter-spacing="0em"><tspan x="532.426" y="128.364">1. GET `/`</tspan></text>
<line x1="477" y1="144.5" x2="629" y2="144.5" stroke="#F0F0F0"/>
<path d="M506 166C506 159.925 510.925 155 517 155H589C595.075 155 600 159.925 600 166C600 172.075 595.075 177 589 177H517C510.925 177 506 172.075 506 166Z" fill="#ECFDF3"/>
<path d="M521.5 166H514.5M514.5 166L518 169.5M514.5 166L518 162.5" stroke="#027A48" stroke-width="1.5" stroke-linecap="round" stroke-linejoin="round"/>
<text fill="#027A48" xml:space="preserve" style="white-space: pre" font-family="Inter" font-size="12" font-weight="500" letter-spacing="0em"><tspan x="528.084" y="170.364">4. RESP `/`</tspan></text>
<g filter="url(#filter1_d_38_874)">
<path d="M657 111C657 99.9543 665.954 91 677 91H840C851.046 91 860 99.9543 860 111V179C860 190.046 851.046 199 840 199H677C665.954 199 657 190.046 657 179V111Z" fill="white" fill-opacity="0.6" shape-rendering="crispEdges"/>
<path d="M734.5 132C734.5 118.745 745.245 108 758.5 108C771.755 108 782.5 118.745 782.5 132C782.5 145.255 771.755 156 758.5 156C745.245 156 734.5 145.255 734.5 132Z" fill="#D1E9FF"/>
<path d="M765.5 129C765.5 132.866 762.366 136 758.5 136M765.5 129C765.5 125.134 762.366 122 758.5 122M765.5 129H751.5M758.5 136C754.634 136 751.5 132.866 751.5 129M758.5 136C760.251 134.083 761.247 131.596 761.301 129C761.247 126.404 760.251 123.917 758.5 122M758.5 136C756.749 134.083 755.755 131.596 755.701 129C755.755 126.404 756.749 123.917 758.5 122M758.5 136V138M751.5 129C751.5 125.134 754.634 122 758.5 122M760.5 140C760.5 141.105 759.605 142 758.5 142C757.395 142 756.5 141.105 756.5 140M760.5 140C760.5 138.895 759.605 138 758.5 138M760.5 140H767.5M756.5 140C756.5 138.895 757.395 138 758.5 138M756.5 140H749.5" stroke="#1570EF" stroke-width="1.66667" stroke-linecap="round" stroke-linejoin="round"/>
<path d="M758.5 152C747.454 152 738.5 143.046 738.5 132H730.5C730.5 147.464 743.036 160 758.5 160V152ZM778.5 132C778.5 143.046 769.546 152 758.5 152V160C773.964 160 786.5 147.464 786.5 132H778.5ZM758.5 112C769.546 112 778.5 120.954 778.5 132H786.5C786.5 116.536 773.964 104 758.5 104V112ZM758.5 104C743.036 104 730.5 116.536 730.5 132H738.5C738.5 120.954 747.454 112 758.5 112V104Z" fill="#EFF8FF"/>
<text fill="#175CD3" xml:space="preserve" style="white-space: pre" font-family="Product Sans" font-size="12" font-weight="bold" letter-spacing="0em"><tspan x="709.258" y="179.242">LOAD BALANCER</tspan></text>
<path d="M677 92H840V90H677V92ZM859 111V179H861V111H859ZM840 198H677V200H840V198ZM658 179V111H656V179H658ZM677 198C666.507 198 658 189.493 658 179H656C656 190.598 665.402 200 677 200V198ZM859 179C859 189.493 850.493 198 840 198V200C851.598 200 861 190.598 861 179H859ZM840 92C850.493 92 859 100.507 859 111H861C861 99.402 851.598 90 840 90V92ZM677 90C665.402 90 656 99.402 656 111H658C658 100.507 666.507 92 677 92V90Z" fill="black" fill-opacity="0.1"/>
</g>
<path d="M890 124C890 117.925 894.925 113 901 113H1027C1033.08 113 1038 117.925 1038 124C1038 130.075 1033.08 135 1027 135H901C894.925 135 890 130.075 890 124Z" fill="#ECFDF3"/>
<path d="M898.5 124H905.5M905.5 124L902 120.5M905.5 124L902 127.5" stroke="#027A48" stroke-width="1.5" stroke-linecap="round" stroke-linejoin="round"/>
<text fill="#027A48" xml:space="preserve" style="white-space: pre" font-family="Inter" font-size="12" font-weight="500" letter-spacing="0em"><tspan x="912.406" y="128.364">2. GET `/index.html`</tspan></text>
<line x1="888" y1="144.5" x2="1040" y2="144.5" stroke="#F0F0F0"/>
<path d="M887 166C887 159.925 891.925 155 898 155H1030C1036.08 155 1041 159.925 1041 166C1041 172.075 1036.08 177 1030 177H898C891.925 177 887 172.075 887 166Z" fill="#ECFDF3"/>
<path d="M902.5 166H895.5M895.5 166L899 169.5M895.5 166L899 162.5" stroke="#027A48" stroke-width="1.5" stroke-linecap="round" stroke-linejoin="round"/>
<text fill="#027A48" xml:space="preserve" style="white-space: pre" font-family="Inter" font-size="12" font-weight="500" letter-spacing="0em"><tspan x="909.184" y="170.364">3. RESP `/index.html`</tspan></text>
<g filter="url(#filter2_d_38_874)">
<path d="M1068 111C1068 99.9543 1076.95 91 1088 91H1200C1211.05 91 1220 99.9543 1220 111V179C1220 190.046 1211.05 199 1200 199H1088C1076.95 199 1068 190.046 1068 179V111Z" fill="white" fill-opacity="0.6" shape-rendering="crispEdges"/>
<path d="M1120 132C1120 118.745 1130.75 108 1144 108C1157.25 108 1168 118.745 1168 132C1168 145.255 1157.25 156 1144 156C1130.75 156 1120 145.255 1120 132Z" fill="#D1E9FF"/>
<path d="M1138 126H1138.01M1138 138H1138.01M1137.2 130H1150.8C1151.92 130 1152.48 130 1152.91 129.782C1153.28 129.59 1153.59 129.284 1153.78 128.908C1154 128.48 1154 127.92 1154 126.8V125.2C1154 124.08 1154 123.52 1153.78 123.092C1153.59 122.716 1153.28 122.41 1152.91 122.218C1152.48 122 1151.92 122 1150.8 122H1137.2C1136.08 122 1135.52 122 1135.09 122.218C1134.72 122.41 1134.41 122.716 1134.22 123.092C1134 123.52 1134 124.08 1134 125.2V126.8C1134 127.92 1134 128.48 1134.22 128.908C1134.41 129.284 1134.72 129.59 1135.09 129.782C1135.52 130 1136.08 130 1137.2 130ZM1137.2 142H1150.8C1151.92 142 1152.48 142 1152.91 141.782C1153.28 141.59 1153.59 141.284 1153.78 140.908C1154 140.48 1154 139.92 1154 138.8V137.2C1154 136.08 1154 135.52 1153.78 135.092C1153.59 134.716 1153.28 134.41 1152.91 134.218C1152.48 134 1151.92 134 1150.8 134H1137.2C1136.08 134 1135.52 134 1135.09 134.218C1134.72 134.41 1134.41 134.716 1134.22 135.092C1134 135.52 1134 136.08 1134 137.2V138.8C1134 139.92 1134 140.48 1134.22 140.908C1134.41 141.284 1134.72 141.59 1135.09 141.782C1135.52 142 1136.08 142 1137.2 142Z" stroke="#1570EF" stroke-width="1.66667" stroke-linecap="round" stroke-linejoin="round"/>
<path d="M1144 152C1132.95 152 1124 143.046 1124 132H1116C1116 147.464 1128.54 160 1144 160V152ZM1164 132C1164 143.046 1155.05 152 1144 152V160C1159.46 160 1172 147.464 1172 132H1164ZM1144 112C1155.05 112 1164 120.954 1164 132H1172C1172 116.536 1159.46 104 1144 104V112ZM1144 104C1128.54 104 1116 116.536 1116 132H1124C1124 120.954 1132.95 112 1144 112V104Z" fill="#EFF8FF"/>
<text fill="#175CD3" xml:space="preserve" style="white-space: pre" font-family="Product Sans" font-size="12" font-weight="bold" letter-spacing="0em"><tspan x="1122.09" y="179.242">SERVER</tspan></text>
<path d="M1088 92H1200V90H1088V92ZM1219 111V179H1221V111H1219ZM1200 198H1088V200H1200V198ZM1069 179V111H1067V179H1069ZM1088 198C1077.51 198 1069 189.493 1069 179H1067C1067 190.598 1076.4 200 1088 200V198ZM1219 179C1219 189.493 1210.49 198 1200 198V200C1211.6 200 1221 190.598 1221 179H1219ZM1200 92C1210.49 92 1219 100.507 1219 111H1221C1221 99.402 1211.6 90 1200 90V92ZM1088 90C1076.4 90 1067 99.402 1067 111H1069C1069 100.507 1077.51 92 1088 92V90Z" fill="black" fill-opacity="0.1"/>
</g>
<path d="M66 124C66 117.925 70.9249 113 77 113H117C123.075 113 128 117.925 128 124C128 130.075 123.075 135 117 135H77C70.9249 135 66 130.075 66 124Z" fill="#ECFDF3"/>
<circle cx="76" cy="124" r="3" fill="#12B76A"/>
<text fill="#027A48" xml:space="preserve" style="white-space: pre" font-family="Inter" font-size="12" font-weight="500" letter-spacing="0em"><tspan x="86.2305" y="128.364">FIRST</tspan></text>
<text fill="#8C8C8C" xml:space="preserve" style="white-space: pre" font-family="Inter" font-size="12" font-weight="500" letter-spacing="0em"><tspan x="70" y="159.364">User first time access path `/`</tspan></text>
<rect x="805" y="232" width="342" height="98" rx="10" fill="black" fill-opacity="0.02"/>
<text fill="#8C8C8C" xml:space="preserve" style="white-space: pre" font-family="Monaco" font-size="12" letter-spacing="0em"><tspan x="893.119" y="257.5">cache-control: no-cache&#10;</tspan><tspan x="831.859" y="275.5">etag: &#34;4960408E160450EAE42D83507EB23730&#34;</tspan></text>
<path d="M827 303C827 296.925 831.925 292 838 292H875C881.075 292 886 296.925 886 303C886 309.075 881.075 314 875 314H838C831.925 314 827 309.075 827 303Z" fill="#ECFDF3"/>
<circle cx="837" cy="303" r="3" fill="#12B76A"/>
<text fill="#027A48" xml:space="preserve" style="white-space: pre" font-family="Inter" font-size="12" font-weight="500" letter-spacing="0em"><tspan x="847.318" y="307.364">RESP</tspan></text>
<path d="M924 294C924 291.791 925.791 290 928 290H944C946.209 290 948 291.791 948 294V310C948 312.209 946.209 314 944 314H928C925.791 314 924 312.209 924 310V294Z" fill="#D1E9FF"/>
<path d="M937 297.135V299.2C937 299.48 937 299.62 937.054 299.727C937.102 299.821 937.179 299.898 937.273 299.946C937.38 300 937.52 300 937.8 300H939.865M938 302.5H934M938 304.5H934M935 300.5H934M937 297H934.4C933.56 297 933.14 297 932.819 297.163C932.537 297.307 932.307 297.537 932.163 297.819C932 298.14 932 298.56 932 299.4V304.6C932 305.44 932 305.86 932.163 306.181C932.307 306.463 932.537 306.693 932.819 306.837C933.14 307 933.56 307 934.4 307H937.6C938.44 307 938.86 307 939.181 306.837C939.463 306.693 939.693 306.463 939.837 306.181C940 305.86 940 305.44 940 304.6V300L937 297Z" stroke="#1570EF" stroke-linecap="round" stroke-linejoin="round"/>
<text fill="#1570EF" xml:space="preserve" style="white-space: pre" font-family="Inter" font-size="14" font-weight="500" letter-spacing="0em"><tspan x="959.089" y="307.091">index.html</tspan></text>
<rect x="805.5" y="232.5" width="341" height="97" rx="9.5" stroke="black" stroke-opacity="0.08"/>
<rect x="391" y="232" width="342" height="98" rx="10" fill="black" fill-opacity="0.02"/>
<text fill="#8C8C8C" xml:space="preserve" style="white-space: pre" font-family="Monaco" font-size="12" letter-spacing="0em"><tspan x="479.119" y="257.5">cache-control: no-cache&#10;</tspan><tspan x="417.859" y="275.5">etag: &#34;4960408E160450EAE42D83507EB23730&#34;</tspan></text>
<path d="M413 303C413 296.925 417.925 292 424 292H461C467.075 292 472 296.925 472 303C472 309.075 467.075 314 461 314H424C417.925 314 413 309.075 413 303Z" fill="#ECFDF3"/>
<circle cx="423" cy="303" r="3" fill="#12B76A"/>
<text fill="#027A48" xml:space="preserve" style="white-space: pre" font-family="Inter" font-size="12" font-weight="500" letter-spacing="0em"><tspan x="433.318" y="307.364">RESP</tspan></text>
<path d="M510 294C510 291.791 511.791 290 514 290H530C532.209 290 534 291.791 534 294V310C534 312.209 532.209 314 530 314H514C511.791 314 510 312.209 510 310V294Z" fill="#D1E9FF"/>
<path d="M523 297.135V299.2C523 299.48 523 299.62 523.054 299.727C523.102 299.821 523.179 299.898 523.273 299.946C523.38 300 523.52 300 523.8 300H525.865M524 302.5H520M524 304.5H520M521 300.5H520M523 297H520.4C519.56 297 519.14 297 518.819 297.163C518.537 297.307 518.307 297.537 518.163 297.819C518 298.14 518 298.56 518 299.4V304.6C518 305.44 518 305.86 518.163 306.181C518.307 306.463 518.537 306.693 518.819 306.837C519.14 307 519.56 307 520.4 307H523.6C524.44 307 524.86 307 525.181 306.837C525.463 306.693 525.693 306.463 525.837 306.181C526 305.86 526 305.44 526 304.6V300L523 297Z" stroke="#1570EF" stroke-linecap="round" stroke-linejoin="round"/>
<text fill="#1570EF" xml:space="preserve" style="white-space: pre" font-family="Inter" font-size="14" font-weight="500" letter-spacing="0em"><tspan x="545.089" y="307.091">index.html</tspan></text>
<rect x="391.5" y="232.5" width="341" height="97" rx="9.5" stroke="black" stroke-opacity="0.08"/>
<g filter="url(#filter3_d_38_874)">
<path d="M287 570C287 558.954 295.954 550 307 550H429C440.046 550 449 558.954 449 570V638C449 649.046 440.046 658 429 658H307C295.954 658 287 649.046 287 638V570Z" fill="white" fill-opacity="0.6" shape-rendering="crispEdges"/>
<path d="M344 591C344 577.745 354.745 567 368 567C381.255 567 392 577.745 392 591C392 604.255 381.255 615 368 615C354.745 615 344 604.255 344 591Z" fill="#D1E9FF"/>
<path d="M378 588H358M358 586.8L358 595.2C358 596.88 358 597.72 358.327 598.362C358.615 598.926 359.074 599.385 359.638 599.673C360.28 600 361.12 600 362.8 600H373.2C374.88 600 375.72 600 376.362 599.673C376.926 599.385 377.385 598.926 377.673 598.362C378 597.72 378 596.88 378 595.2V586.8C378 585.12 378 584.28 377.673 583.638C377.385 583.074 376.926 582.615 376.362 582.327C375.72 582 374.88 582 373.2 582L362.8 582C361.12 582 360.28 582 359.638 582.327C359.074 582.615 358.615 583.074 358.327 583.638C358 584.28 358 585.12 358 586.8Z" stroke="#1570EF" stroke-width="1.66667" stroke-linecap="round" stroke-linejoin="round"/>
<path d="M368 611C356.954 611 348 602.046 348 591H340C340 606.464 352.536 619 368 619V611ZM388 591C388 602.046 379.046 611 368 611V619C383.464 619 396 606.464 396 591H388ZM368 571C379.046 571 388 579.954 388 591H396C396 575.536 383.464 563 368 563V571ZM368 563C352.536 563 340 575.536 340 591H348C348 579.954 356.954 571 368 571V563Z" fill="#EFF8FF"/>
<text fill="#175CD3" xml:space="preserve" style="white-space: pre" font-family="Product Sans" font-size="12" font-weight="bold" letter-spacing="0em"><tspan x="339.266" y="638.242">BROWSER</tspan></text>
<path d="M307 551H429V549H307V551ZM448 570V638H450V570H448ZM429 657H307V659H429V657ZM288 638V570H286V638H288ZM307 657C296.507 657 288 648.493 288 638H286C286 649.598 295.402 659 307 659V657ZM448 638C448 648.493 439.493 657 429 657V659C440.598 659 450 649.598 450 638H448ZM429 551C439.493 551 448 559.507 448 570H450C450 558.402 440.598 549 429 549V551ZM307 549C295.402 549 286 558.402 286 570H288C288 559.507 296.507 551 307 551V549Z" fill="black" fill-opacity="0.1"/>
</g>
<path d="M510 583C510 576.925 514.925 572 521 572H585C591.075 572 596 576.925 596 583C596 589.075 591.075 594 585 594H521C514.925 594 510 589.075 510 583Z" fill="#ECFDF3"/>
<path d="M518.5 583H525.5M525.5 583L522 579.5M525.5 583L522 586.5" stroke="#027A48" stroke-width="1.5" stroke-linecap="round" stroke-linejoin="round"/>
<text fill="#027A48" xml:space="preserve" style="white-space: pre" font-family="Inter" font-size="12" font-weight="500" letter-spacing="0em"><tspan x="532.426" y="587.364">1. GET `/`</tspan></text>
<line x1="477" y1="603.5" x2="629" y2="603.5" stroke="#F0F0F0"/>
<path d="M506 625C506 618.925 510.925 614 517 614H589C595.075 614 600 618.925 600 625C600 631.075 595.075 636 589 636H517C510.925 636 506 631.075 506 625Z" fill="#ECFDF3"/>
<path d="M521.5 625H514.5M514.5 625L518 628.5M514.5 625L518 621.5" stroke="#027A48" stroke-width="1.5" stroke-linecap="round" stroke-linejoin="round"/>
<text fill="#027A48" xml:space="preserve" style="white-space: pre" font-family="Inter" font-size="12" font-weight="500" letter-spacing="0em"><tspan x="528.084" y="629.364">4. RESP `/`</tspan></text>
<g filter="url(#filter4_d_38_874)">
<path d="M657 570C657 558.954 665.954 550 677 550H840C851.046 550 860 558.954 860 570V638C860 649.046 851.046 658 840 658H677C665.954 658 657 649.046 657 638V570Z" fill="white" fill-opacity="0.6" shape-rendering="crispEdges"/>
<path d="M734.5 591C734.5 577.745 745.245 567 758.5 567C771.755 567 782.5 577.745 782.5 591C782.5 604.255 771.755 615 758.5 615C745.245 615 734.5 604.255 734.5 591Z" fill="#D1E9FF"/>
<path d="M765.5 588C765.5 591.866 762.366 595 758.5 595M765.5 588C765.5 584.134 762.366 581 758.5 581M765.5 588H751.5M758.5 595C754.634 595 751.5 591.866 751.5 588M758.5 595C760.251 593.083 761.247 590.596 761.301 588C761.247 585.404 760.251 582.917 758.5 581M758.5 595C756.749 593.083 755.755 590.596 755.701 588C755.755 585.404 756.749 582.917 758.5 581M758.5 595V597M751.5 588C751.5 584.134 754.634 581 758.5 581M760.5 599C760.5 600.105 759.605 601 758.5 601C757.395 601 756.5 600.105 756.5 599M760.5 599C760.5 597.895 759.605 597 758.5 597M760.5 599H767.5M756.5 599C756.5 597.895 757.395 597 758.5 597M756.5 599H749.5" stroke="#1570EF" stroke-width="1.66667" stroke-linecap="round" stroke-linejoin="round"/>
<path d="M758.5 611C747.454 611 738.5 602.046 738.5 591H730.5C730.5 606.464 743.036 619 758.5 619V611ZM778.5 591C778.5 602.046 769.546 611 758.5 611V619C773.964 619 786.5 606.464 786.5 591H778.5ZM758.5 571C769.546 571 778.5 579.954 778.5 591H786.5C786.5 575.536 773.964 563 758.5 563V571ZM758.5 563C743.036 563 730.5 575.536 730.5 591H738.5C738.5 579.954 747.454 571 758.5 571V563Z" fill="#EFF8FF"/>
<text fill="#175CD3" xml:space="preserve" style="white-space: pre" font-family="Product Sans" font-size="12" font-weight="bold" letter-spacing="0em"><tspan x="709.258" y="638.242">LOAD BALANCER</tspan></text>
<path d="M677 551H840V549H677V551ZM859 570V638H861V570H859ZM840 657H677V659H840V657ZM658 638V570H656V638H658ZM677 657C666.507 657 658 648.493 658 638H656C656 649.598 665.402 659 677 659V657ZM859 638C859 648.493 850.493 657 840 657V659C851.598 659 861 649.598 861 638H859ZM840 551C850.493 551 859 559.507 859 570H861C861 558.402 851.598 549 840 549V551ZM677 549C665.402 549 656 558.402 656 570H658C658 559.507 666.507 551 677 551V549Z" fill="black" fill-opacity="0.1"/>
</g>
<path d="M890 583C890 576.925 894.925 572 901 572H1027C1033.08 572 1038 576.925 1038 583C1038 589.075 1033.08 594 1027 594H901C894.925 594 890 589.075 890 583Z" fill="#ECFDF3"/>
<path d="M898.5 583H905.5M905.5 583L902 579.5M905.5 583L902 586.5" stroke="#027A48" stroke-width="1.5" stroke-linecap="round" stroke-linejoin="round"/>
<text fill="#027A48" xml:space="preserve" style="white-space: pre" font-family="Inter" font-size="12" font-weight="500" letter-spacing="0em"><tspan x="912.406" y="587.364">2. GET `/index.html`</tspan></text>
<line x1="888" y1="603.5" x2="1040" y2="603.5" stroke="#F0F0F0"/>
<path d="M887 625C887 618.925 891.925 614 898 614H1030C1036.08 614 1041 618.925 1041 625C1041 631.075 1036.08 636 1030 636H898C891.925 636 887 631.075 887 625Z" fill="#ECFDF3"/>
<path d="M902.5 625H895.5M895.5 625L899 628.5M895.5 625L899 621.5" stroke="#027A48" stroke-width="1.5" stroke-linecap="round" stroke-linejoin="round"/>
<text fill="#027A48" xml:space="preserve" style="white-space: pre" font-family="Inter" font-size="12" font-weight="500" letter-spacing="0em"><tspan x="909.184" y="629.364">3. RESP `/index.html`</tspan></text>
<g filter="url(#filter5_d_38_874)">
<path d="M1068 570C1068 558.954 1076.95 550 1088 550H1200C1211.05 550 1220 558.954 1220 570V638C1220 649.046 1211.05 658 1200 658H1088C1076.95 658 1068 649.046 1068 638V570Z" fill="white" fill-opacity="0.6" shape-rendering="crispEdges"/>
<path d="M1120 591C1120 577.745 1130.75 567 1144 567C1157.25 567 1168 577.745 1168 591C1168 604.255 1157.25 615 1144 615C1130.75 615 1120 604.255 1120 591Z" fill="#D1E9FF"/>
<path d="M1138 585H1138.01M1138 597H1138.01M1137.2 589H1150.8C1151.92 589 1152.48 589 1152.91 588.782C1153.28 588.59 1153.59 588.284 1153.78 587.908C1154 587.48 1154 586.92 1154 585.8V584.2C1154 583.08 1154 582.52 1153.78 582.092C1153.59 581.716 1153.28 581.41 1152.91 581.218C1152.48 581 1151.92 581 1150.8 581H1137.2C1136.08 581 1135.52 581 1135.09 581.218C1134.72 581.41 1134.41 581.716 1134.22 582.092C1134 582.52 1134 583.08 1134 584.2V585.8C1134 586.92 1134 587.48 1134.22 587.908C1134.41 588.284 1134.72 588.59 1135.09 588.782C1135.52 589 1136.08 589 1137.2 589ZM1137.2 601H1150.8C1151.92 601 1152.48 601 1152.91 600.782C1153.28 600.59 1153.59 600.284 1153.78 599.908C1154 599.48 1154 598.92 1154 597.8V596.2C1154 595.08 1154 594.52 1153.78 594.092C1153.59 593.716 1153.28 593.41 1152.91 593.218C1152.48 593 1151.92 593 1150.8 593H1137.2C1136.08 593 1135.52 593 1135.09 593.218C1134.72 593.41 1134.41 593.716 1134.22 594.092C1134 594.52 1134 595.08 1134 596.2V597.8C1134 598.92 1134 599.48 1134.22 599.908C1134.41 600.284 1134.72 600.59 1135.09 600.782C1135.52 601 1136.08 601 1137.2 601Z" stroke="#1570EF" stroke-width="1.66667" stroke-linecap="round" stroke-linejoin="round"/>
<path d="M1144 611C1132.95 611 1124 602.046 1124 591H1116C1116 606.464 1128.54 619 1144 619V611ZM1164 591C1164 602.046 1155.05 611 1144 611V619C1159.46 619 1172 606.464 1172 591H1164ZM1144 571C1155.05 571 1164 579.954 1164 591H1172C1172 575.536 1159.46 563 1144 563V571ZM1144 563C1128.54 563 1116 575.536 1116 591H1124C1124 579.954 1132.95 571 1144 571V563Z" fill="#EFF8FF"/>
<text fill="#175CD3" xml:space="preserve" style="white-space: pre" font-family="Product Sans" font-size="12" font-weight="bold" letter-spacing="0em"><tspan x="1122.09" y="638.242">SERVER</tspan></text>
<path d="M1088 551H1200V549H1088V551ZM1219 570V638H1221V570H1219ZM1200 657H1088V659H1200V657ZM1069 638V570H1067V638H1069ZM1088 657C1077.51 657 1069 648.493 1069 638H1067C1067 649.598 1076.4 659 1088 659V657ZM1219 638C1219 648.493 1210.49 657 1200 657V659C1211.6 659 1221 649.598 1221 638H1219ZM1200 551C1210.49 551 1219 559.507 1219 570H1221C1221 558.402 1211.6 549 1200 549V551ZM1088 549C1076.4 549 1067 558.402 1067 570H1069C1069 559.507 1077.51 551 1088 551V549Z" fill="black" fill-opacity="0.1"/>
</g>
<path d="M66 464C66 457.925 70.9249 453 77 453H134C140.075 453 145 457.925 145 464C145 470.075 140.075 475 134 475H77C70.9249 475 66 470.075 66 464Z" fill="#ECFDF3"/>
<circle cx="76" cy="464" r="3" fill="#12B76A"/>
<text fill="#027A48" xml:space="preserve" style="white-space: pre" font-family="Inter" font-size="12" font-weight="500" letter-spacing="0em"><tspan x="86.1875" y="468.364">SECOND</tspan></text>
<text fill="#8C8C8C" xml:space="preserve" style="white-space: pre" font-family="Inter" font-size="12" font-weight="500" letter-spacing="0em"><tspan x="70" y="499.364">Second time access path `/`</tspan></text>
<rect x="398" y="703" width="327" height="92" rx="10" fill="black" fill-opacity="0.02"/>
<text fill="#8C8C8C" xml:space="preserve" style="white-space: pre" font-family="Monaco" font-size="12" letter-spacing="0em"><tspan x="478.619" y="728.5">cache-control: no-cache&#10;</tspan><tspan x="417.359" y="746.5">etag: &#34;4960408E160450EAE42D83507EB23730&#34;</tspan></text>
<path d="M419 772C419 765.925 423.925 761 430 761H467C473.075 761 478 765.925 478 772C478 778.075 473.075 783 467 783H430C423.925 783 419 778.075 419 772Z" fill="#ECFDF3"/>
<circle cx="429" cy="772" r="3" fill="#12B76A"/>
<text fill="#027A48" xml:space="preserve" style="white-space: pre" font-family="Inter" font-size="12" font-weight="500" letter-spacing="0em"><tspan x="439.318" y="776.364">RESP</tspan></text>
<path d="M598 772C598 765.925 602.925 761 609 761H693C699.075 761 704 765.925 704 772C704 778.075 699.075 783 693 783H609C602.925 783 598 778.075 598 772Z" fill="#F0F9FF"/>
<path d="M612 775L615 772L612 769M608 769L605 772L608 775" stroke="#026AA2" stroke-width="1.5" stroke-linecap="round" stroke-linejoin="round"/>
<text fill="#026AA2" xml:space="preserve" style="white-space: pre" font-family="Inter" font-size="12" font-weight="500" letter-spacing="0em"><tspan x="620.16" y="776.364">STATUE: 304</tspan></text>
<rect x="398.5" y="703.5" width="326" height="91" rx="9.5" stroke="black" stroke-opacity="0.08"/>
<rect x="358" y="442" width="392" height="74" rx="10" fill="black" fill-opacity="0.02"/>
<text fill="#8C8C8C" xml:space="preserve" style="white-space: pre" font-family="Monaco" font-size="12" letter-spacing="0em"><tspan x="377.428" y="467.5">If-None-Match: &#34;4960408E160450EAE42D83507EB23730&#34;</tspan></text>
<path d="M377 493C377 486.925 381.925 482 388 482H419C425.075 482 430 486.925 430 493C430 499.075 425.075 504 419 504H388C381.925 504 377 499.075 377 493Z" fill="#ECFDF3"/>
<circle cx="387" cy="493" r="3" fill="#12B76A"/>
<text fill="#027A48" xml:space="preserve" style="white-space: pre" font-family="Inter" font-size="12" font-weight="500" letter-spacing="0em"><tspan x="397.406" y="497.364">REQ</tspan></text>
<rect x="358.5" y="442.5" width="391" height="73" rx="9.5" stroke="black" stroke-opacity="0.08"/>
<rect x="779" y="442" width="392" height="74" rx="10" fill="black" fill-opacity="0.02"/>
<text fill="#8C8C8C" xml:space="preserve" style="white-space: pre" font-family="Monaco" font-size="12" letter-spacing="0em"><tspan x="798.428" y="467.5">If-None-Match: &#34;4960408E160450EAE42D83507EB23730&#34;</tspan></text>
<path d="M798 493C798 486.925 802.925 482 809 482H840C846.075 482 851 486.925 851 493C851 499.075 846.075 504 840 504H809C802.925 504 798 499.075 798 493Z" fill="#ECFDF3"/>
<circle cx="808" cy="493" r="3" fill="#12B76A"/>
<text fill="#027A48" xml:space="preserve" style="white-space: pre" font-family="Inter" font-size="12" font-weight="500" letter-spacing="0em"><tspan x="818.406" y="497.364">REQ</tspan></text>
<rect x="779.5" y="442.5" width="391" height="73" rx="9.5" stroke="black" stroke-opacity="0.08"/>
<rect x="795" y="703" width="327" height="92" rx="10" fill="black" fill-opacity="0.02"/>
<text fill="#8C8C8C" xml:space="preserve" style="white-space: pre" font-family="Monaco" font-size="12" letter-spacing="0em"><tspan x="875.619" y="728.5">cache-control: no-cache&#10;</tspan><tspan x="814.359" y="746.5">etag: &#34;4960408E160450EAE42D83507EB23730&#34;</tspan></text>
<path d="M816 772C816 765.925 820.925 761 827 761H864C870.075 761 875 765.925 875 772C875 778.075 870.075 783 864 783H827C820.925 783 816 778.075 816 772Z" fill="#ECFDF3"/>
<circle cx="826" cy="772" r="3" fill="#12B76A"/>
<text fill="#027A48" xml:space="preserve" style="white-space: pre" font-family="Inter" font-size="12" font-weight="500" letter-spacing="0em"><tspan x="836.318" y="776.364">RESP</tspan></text>
<path d="M995 772C995 765.925 999.925 761 1006 761H1090C1096.08 761 1101 765.925 1101 772C1101 778.075 1096.08 783 1090 783H1006C999.925 783 995 778.075 995 772Z" fill="#F0F9FF"/>
<path d="M1009 775L1012 772L1009 769M1005 769L1002 772L1005 775" stroke="#026AA2" stroke-width="1.5" stroke-linecap="round" stroke-linejoin="round"/>
<text fill="#026AA2" xml:space="preserve" style="white-space: pre" font-family="Inter" font-size="12" font-weight="500" letter-spacing="0em"><tspan x="1017.16" y="776.364">STATUE: 304</tspan></text>
<rect x="795.5" y="703.5" width="326" height="91" rx="9.5" stroke="black" stroke-opacity="0.08"/>
<line x1="72" y1="385.5" x2="1230" y2="385.5" stroke="#D9D9D9" stroke-dasharray="6 6"/>
<defs>
<filter id="filter0_d_38_874" x="277" y="85" width="182" height="128" filterUnits="userSpaceOnUse" color-interpolation-filters="sRGB">
<feFlood flood-opacity="0" result="BackgroundImageFix"/>
<feColorMatrix in="SourceAlpha" type="matrix" values="0 0 0 0 0 0 0 0 0 0 0 0 0 0 0 0 0 0 127 0" result="hardAlpha"/>
<feOffset dy="4"/>
<feGaussianBlur stdDeviation="5"/>
<feComposite in2="hardAlpha" operator="out"/>
<feColorMatrix type="matrix" values="0 0 0 0 0 0 0 0 0 0 0 0 0 0 0 0 0 0 0.05 0"/>
<feBlend mode="normal" in2="BackgroundImageFix" result="effect1_dropShadow_38_874"/>
<feBlend mode="normal" in="SourceGraphic" in2="effect1_dropShadow_38_874" result="shape"/>
</filter>
<filter id="filter1_d_38_874" x="647" y="85" width="223" height="128" filterUnits="userSpaceOnUse" color-interpolation-filters="sRGB">
<feFlood flood-opacity="0" result="BackgroundImageFix"/>
<feColorMatrix in="SourceAlpha" type="matrix" values="0 0 0 0 0 0 0 0 0 0 0 0 0 0 0 0 0 0 127 0" result="hardAlpha"/>
<feOffset dy="4"/>
<feGaussianBlur stdDeviation="5"/>
<feComposite in2="hardAlpha" operator="out"/>
<feColorMatrix type="matrix" values="0 0 0 0 0 0 0 0 0 0 0 0 0 0 0 0 0 0 0.05 0"/>
<feBlend mode="normal" in2="BackgroundImageFix" result="effect1_dropShadow_38_874"/>
<feBlend mode="normal" in="SourceGraphic" in2="effect1_dropShadow_38_874" result="shape"/>
</filter>
<filter id="filter2_d_38_874" x="1058" y="85" width="172" height="128" filterUnits="userSpaceOnUse" color-interpolation-filters="sRGB">
<feFlood flood-opacity="0" result="BackgroundImageFix"/>
<feColorMatrix in="SourceAlpha" type="matrix" values="0 0 0 0 0 0 0 0 0 0 0 0 0 0 0 0 0 0 127 0" result="hardAlpha"/>
<feOffset dy="4"/>
<feGaussianBlur stdDeviation="5"/>
<feComposite in2="hardAlpha" operator="out"/>
<feColorMatrix type="matrix" values="0 0 0 0 0 0 0 0 0 0 0 0 0 0 0 0 0 0 0.05 0"/>
<feBlend mode="normal" in2="BackgroundImageFix" result="effect1_dropShadow_38_874"/>
<feBlend mode="normal" in="SourceGraphic" in2="effect1_dropShadow_38_874" result="shape"/>
</filter>
<filter id="filter3_d_38_874" x="277" y="544" width="182" height="128" filterUnits="userSpaceOnUse" color-interpolation-filters="sRGB">
<feFlood flood-opacity="0" result="BackgroundImageFix"/>
<feColorMatrix in="SourceAlpha" type="matrix" values="0 0 0 0 0 0 0 0 0 0 0 0 0 0 0 0 0 0 127 0" result="hardAlpha"/>
<feOffset dy="4"/>
<feGaussianBlur stdDeviation="5"/>
<feComposite in2="hardAlpha" operator="out"/>
<feColorMatrix type="matrix" values="0 0 0 0 0 0 0 0 0 0 0 0 0 0 0 0 0 0 0.05 0"/>
<feBlend mode="normal" in2="BackgroundImageFix" result="effect1_dropShadow_38_874"/>
<feBlend mode="normal" in="SourceGraphic" in2="effect1_dropShadow_38_874" result="shape"/>
</filter>
<filter id="filter4_d_38_874" x="647" y="544" width="223" height="128" filterUnits="userSpaceOnUse" color-interpolation-filters="sRGB">
<feFlood flood-opacity="0" result="BackgroundImageFix"/>
<feColorMatrix in="SourceAlpha" type="matrix" values="0 0 0 0 0 0 0 0 0 0 0 0 0 0 0 0 0 0 127 0" result="hardAlpha"/>
<feOffset dy="4"/>
<feGaussianBlur stdDeviation="5"/>
<feComposite in2="hardAlpha" operator="out"/>
<feColorMatrix type="matrix" values="0 0 0 0 0 0 0 0 0 0 0 0 0 0 0 0 0 0 0.05 0"/>
<feBlend mode="normal" in2="BackgroundImageFix" result="effect1_dropShadow_38_874"/>
<feBlend mode="normal" in="SourceGraphic" in2="effect1_dropShadow_38_874" result="shape"/>
</filter>
<filter id="filter5_d_38_874" x="1058" y="544" width="172" height="128" filterUnits="userSpaceOnUse" color-interpolation-filters="sRGB">
<feFlood flood-opacity="0" result="BackgroundImageFix"/>
<feColorMatrix in="SourceAlpha" type="matrix" values="0 0 0 0 0 0 0 0 0 0 0 0 0 0 0 0 0 0 127 0" result="hardAlpha"/>
<feOffset dy="4"/>
<feGaussianBlur stdDeviation="5"/>
<feComposite in2="hardAlpha" operator="out"/>
<feColorMatrix type="matrix" values="0 0 0 0 0 0 0 0 0 0 0 0 0 0 0 0 0 0 0.05 0"/>
<feBlend mode="normal" in2="BackgroundImageFix" result="effect1_dropShadow_38_874"/>
<feBlend mode="normal" in="SourceGraphic" in2="effect1_dropShadow_38_874" result="shape"/>
</filter>
</defs>
</svg>
