<svg width="1339" height="284" viewBox="0 0 1339 284" fill="none" xmlns="http://www.w3.org/2000/svg">

    <g filter="url(#filter0_d_34_824)">
        <path
            d="M287 86C287 74.9543 295.954 66 307 66H429C440.046 66 449 74.9543 449 86V154C449 165.046 440.046 174 429 174H307C295.954 174 287 165.046 287 154V86Z"
            fill="white" fill-opacity="0.3" shape-rendering="crispEdges" />
        <path
            d="M344 107C344 93.7452 354.745 83 368 83C381.255 83 392 93.7452 392 107C392 120.255 381.255 131 368 131C354.745 131 344 120.255 344 107Z"
            fill="#175CD3" />
        <path
            d="M378 104H358M358 102.8L358 111.2C358 112.88 358 113.72 358.327 114.362C358.615 114.926 359.074 115.385 359.638 115.673C360.28 116 361.12 116 362.8 116H373.2C374.88 116 375.72 116 376.362 115.673C376.926 115.385 377.385 114.926 377.673 114.362C378 113.72 378 112.88 378 111.2V102.8C378 101.12 378 100.28 377.673 99.638C377.385 99.0735 376.926 98.6146 376.362 98.327C375.72 98 374.88 98 373.2 98L362.8 98C361.12 98 360.28 98 359.638 98.327C359.074 98.6146 358.615 99.0735 358.327 99.638C358 100.28 358 101.12 358 102.8Z"
            stroke="#B2DDFF" stroke-width="1.66667" stroke-linecap="round" stroke-linejoin="round" />
        <path
            d="M368 127C356.954 127 348 118.046 348 107H340C340 122.464 352.536 135 368 135V127ZM388 107C388 118.046 379.046 127 368 127V135C383.464 135 396 122.464 396 107H388ZM368 87C379.046 87 388 95.9543 388 107H396C396 91.536 383.464 79 368 79V87ZM368 79C352.536 79 340 91.536 340 107H348C348 95.9543 356.954 87 368 87V79Z"
            fill="#1849A9" />
        <text fill="#D1E0FF" xml:space="preserve" style="white-space: pre" font-family="Product Sans" font-size="12"
            font-weight="bold" letter-spacing="0em">
            <tspan x="339.266" y="154.242">BROWSER</tspan>
        </text>
        <path
            d="M307 67H429V65H307V67ZM448 86V154H450V86H448ZM429 173H307V175H429V173ZM288 154V86H286V154H288ZM307 173C296.507 173 288 164.493 288 154H286C286 165.598 295.402 175 307 175V173ZM448 154C448 164.493 439.493 173 429 173V175C440.598 175 450 165.598 450 154H448ZM429 67C439.493 67 448 75.5066 448 86H450C450 74.402 440.598 65 429 65V67ZM307 65C295.402 65 286 74.402 286 86H288C288 75.5066 296.507 67 307 67V65Z"
            fill="white" fill-opacity="0.2" />
    </g>
    <path
        d="M510 99C510 92.9249 514.925 88 521 88H585C591.075 88 596 92.9249 596 99C596 105.075 591.075 110 585 110H521C514.925 110 510 105.075 510 99Z"
        fill="#05603A" />
    <path d="M518.5 99H525.5M525.5 99L522 95.5M525.5 99L522 102.5" stroke="#6CE9A6" stroke-width="1.5"
        stroke-linecap="round" stroke-linejoin="round" />
    <text fill="#6CE9A6" xml:space="preserve" style="white-space: pre" font-family="Inter" font-size="12"
        font-weight="500" letter-spacing="0em">
        <tspan x="532.426" y="103.364">1. GET `/`</tspan>
    </text>
    <line x1="477" y1="119.5" x2="629" y2="119.5" stroke="#434343" />
    <path
        d="M506 141C506 134.925 510.925 130 517 130H589C595.075 130 600 134.925 600 141C600 147.075 595.075 152 589 152H517C510.925 152 506 147.075 506 141Z"
        fill="#05603A" />
    <path d="M521.5 141H514.5M514.5 141L518 144.5M514.5 141L518 137.5" stroke="#6CE9A6" stroke-width="1.5"
        stroke-linecap="round" stroke-linejoin="round" />
    <text fill="#6CE9A6" xml:space="preserve" style="white-space: pre" font-family="Inter" font-size="12"
        font-weight="500" letter-spacing="0em">
        <tspan x="528.084" y="145.364">4. RESP `/`</tspan>
    </text>
    <g filter="url(#filter1_d_34_824)">
        <path
            d="M657 86C657 74.9543 665.954 66 677 66H840C851.046 66 860 74.9543 860 86V154C860 165.046 851.046 174 840 174H677C665.954 174 657 165.046 657 154V86Z"
            fill="white" fill-opacity="0.3" shape-rendering="crispEdges" />
        <path
            d="M734.5 107C734.5 93.7452 745.245 83 758.5 83C771.755 83 782.5 93.7452 782.5 107C782.5 120.255 771.755 131 758.5 131C745.245 131 734.5 120.255 734.5 107Z"
            fill="#175CD3" />
        <path
            d="M765.5 104C765.5 107.866 762.366 111 758.5 111M765.5 104C765.5 100.134 762.366 97 758.5 97M765.5 104H751.5M758.5 111C754.634 111 751.5 107.866 751.5 104M758.5 111C760.251 109.083 761.247 106.596 761.301 104C761.247 101.404 760.251 98.9168 758.5 97M758.5 111C756.749 109.083 755.755 106.596 755.701 104C755.755 101.404 756.749 98.9168 758.5 97M758.5 111V113M751.5 104C751.5 100.134 754.634 97 758.5 97M760.5 115C760.5 116.105 759.605 117 758.5 117C757.395 117 756.5 116.105 756.5 115M760.5 115C760.5 113.895 759.605 113 758.5 113M760.5 115H767.5M756.5 115C756.5 113.895 757.395 113 758.5 113M756.5 115H749.5"
            stroke="#91D5FF" stroke-width="2" stroke-linecap="round" stroke-linejoin="round" />
        <path
            d="M758.5 127C747.454 127 738.5 118.046 738.5 107H730.5C730.5 122.464 743.036 135 758.5 135V127ZM778.5 107C778.5 118.046 769.546 127 758.5 127V135C773.964 135 786.5 122.464 786.5 107H778.5ZM758.5 87C769.546 87 778.5 95.9543 778.5 107H786.5C786.5 91.536 773.964 79 758.5 79V87ZM758.5 79C743.036 79 730.5 91.536 730.5 107H738.5C738.5 95.9543 747.454 87 758.5 87V79Z"
            fill="#1849A9" />
        <text fill="#D1E0FF" xml:space="preserve" style="white-space: pre" font-family="Product Sans" font-size="12"
            font-weight="bold" letter-spacing="0em">
            <tspan x="709.258" y="154.242">LOAD BALANCER</tspan>
        </text>
        <path
            d="M677 67H840V65H677V67ZM859 86V154H861V86H859ZM840 173H677V175H840V173ZM658 154V86H656V154H658ZM677 173C666.507 173 658 164.493 658 154H656C656 165.598 665.402 175 677 175V173ZM859 154C859 164.493 850.493 173 840 173V175C851.598 175 861 165.598 861 154H859ZM840 67C850.493 67 859 75.5066 859 86H861C861 74.402 851.598 65 840 65V67ZM677 65C665.402 65 656 74.402 656 86H658C658 75.5066 666.507 67 677 67V65Z"
            fill="white" fill-opacity="0.2" />
    </g>
    <path
        d="M890 99C890 92.9249 894.925 88 901 88H1027C1033.08 88 1038 92.9249 1038 99C1038 105.075 1033.08 110 1027 110H901C894.925 110 890 105.075 890 99Z"
        fill="#05603A" />
    <path d="M898.5 99H905.5M905.5 99L902 95.5M905.5 99L902 102.5" stroke="#6CE9A6" stroke-width="1.5"
        stroke-linecap="round" stroke-linejoin="round" />
    <text fill="#6CE9A6" xml:space="preserve" style="white-space: pre" font-family="Inter" font-size="12"
        font-weight="500" letter-spacing="0em">
        <tspan x="912.406" y="103.364">2. GET `/index.html`</tspan>
    </text>
    <line x1="888" y1="119.5" x2="1040" y2="119.5" stroke="#434343" />
    <path
        d="M887 141C887 134.925 891.925 130 898 130H1030C1036.08 130 1041 134.925 1041 141C1041 147.075 1036.08 152 1030 152H898C891.925 152 887 147.075 887 141Z"
        fill="#05603A" />
    <path d="M902.5 141H895.5M895.5 141L899 144.5M895.5 141L899 137.5" stroke="#6CE9A6" stroke-width="1.5"
        stroke-linecap="round" stroke-linejoin="round" />
    <text fill="#6CE9A6" xml:space="preserve" style="white-space: pre" font-family="Inter" font-size="12"
        font-weight="500" letter-spacing="0em">
        <tspan x="909.184" y="145.364">3. RESP `/index.html`</tspan>
    </text>
    <g filter="url(#filter2_d_34_824)">
        <path
            d="M1068 86C1068 74.9543 1076.95 66 1088 66H1200C1211.05 66 1220 74.9543 1220 86V154C1220 165.046 1211.05 174 1200 174H1088C1076.95 174 1068 165.046 1068 154V86Z"
            fill="white" fill-opacity="0.3" shape-rendering="crispEdges" />
        <path
            d="M1120 107C1120 93.7452 1130.75 83 1144 83C1157.25 83 1168 93.7452 1168 107C1168 120.255 1157.25 131 1144 131C1130.75 131 1120 120.255 1120 107Z"
            fill="#175CD3" />
        <path
            d="M1138 101H1138.01M1138 113H1138.01M1137.2 105H1150.8C1151.92 105 1152.48 105 1152.91 104.782C1153.28 104.59 1153.59 104.284 1153.78 103.908C1154 103.48 1154 102.92 1154 101.8V100.2C1154 99.0799 1154 98.5198 1153.78 98.092C1153.59 97.7157 1153.28 97.4097 1152.91 97.218C1152.48 97 1151.92 97 1150.8 97H1137.2C1136.08 97 1135.52 97 1135.09 97.218C1134.72 97.4097 1134.41 97.7157 1134.22 98.092C1134 98.5198 1134 99.0799 1134 100.2V101.8C1134 102.92 1134 103.48 1134.22 103.908C1134.41 104.284 1134.72 104.59 1135.09 104.782C1135.52 105 1136.08 105 1137.2 105ZM1137.2 117H1150.8C1151.92 117 1152.48 117 1152.91 116.782C1153.28 116.59 1153.59 116.284 1153.78 115.908C1154 115.48 1154 114.92 1154 113.8V112.2C1154 111.08 1154 110.52 1153.78 110.092C1153.59 109.716 1153.28 109.41 1152.91 109.218C1152.48 109 1151.92 109 1150.8 109H1137.2C1136.08 109 1135.52 109 1135.09 109.218C1134.72 109.41 1134.41 109.716 1134.22 110.092C1134 110.52 1134 111.08 1134 112.2V113.8C1134 114.92 1134 115.48 1134.22 115.908C1134.41 116.284 1134.72 116.59 1135.09 116.782C1135.52 117 1136.08 117 1137.2 117Z"
            stroke="#B2DDFF" stroke-width="1.66667" stroke-linecap="round" stroke-linejoin="round" />
        <path
            d="M1144 127C1132.95 127 1124 118.046 1124 107H1116C1116 122.464 1128.54 135 1144 135V127ZM1164 107C1164 118.046 1155.05 127 1144 127V135C1159.46 135 1172 122.464 1172 107H1164ZM1144 87C1155.05 87 1164 95.9543 1164 107H1172C1172 91.536 1159.46 79 1144 79V87ZM1144 79C1128.54 79 1116 91.536 1116 107H1124C1124 95.9543 1132.95 87 1144 87V79Z"
            fill="#1849A9" />
        <text fill="#D1E0FF" xml:space="preserve" style="white-space: pre" font-family="Product Sans" font-size="12"
            font-weight="bold" letter-spacing="0em">
            <tspan x="1122.09" y="154.242">SERVER</tspan>
        </text>
        <path
            d="M1088 67H1200V65H1088V67ZM1219 86V154H1221V86H1219ZM1200 173H1088V175H1200V173ZM1069 154V86H1067V154H1069ZM1088 173C1077.51 173 1069 164.493 1069 154H1067C1067 165.598 1076.4 175 1088 175V173ZM1219 154C1219 164.493 1210.49 173 1200 173V175C1211.6 175 1221 165.598 1221 154H1219ZM1200 67C1210.49 67 1219 75.5066 1219 86H1221C1221 74.402 1211.6 65 1200 65V67ZM1088 65C1076.4 65 1067 74.402 1067 86H1069C1069 75.5066 1077.51 67 1088 67V65Z"
            fill="white" fill-opacity="0.2" />
    </g>
    <path
        d="M463 199C463 195.686 465.686 193 469 193H641C644.314 193 647 195.686 647 199V211C647 214.314 644.314 217 641 217H469C465.686 217 463 214.314 463 211V199Z"
        fill="#1D2939" />
    <text fill="#98A2B3" xml:space="preserve" style="white-space: pre" font-family="Inter" font-size="14"
        font-weight="500" letter-spacing="0em">
        <tspan x="472.299" y="210.091">cache-control: no-cache</tspan>
    </text>
    <path
        d="M469 194H641V192H469V194ZM646 199V211H648V199H646ZM641 216H469V218H641V216ZM464 211V199H462V211H464ZM469 216C466.239 216 464 213.761 464 211H462C462 214.866 465.134 218 469 218V216ZM646 211C646 213.761 643.761 216 641 216V218C644.866 218 648 214.866 648 211H646ZM641 194C643.761 194 646 196.239 646 199H648C648 195.134 644.866 192 641 192V194ZM469 192C465.134 192 462 195.134 462 199H464C464 196.239 466.239 194 469 194V192Z"
        fill="#344054" />
    <path
        d="M876 199C876 195.686 878.686 193 882 193H1054C1057.31 193 1060 195.686 1060 199V211C1060 214.314 1057.31 217 1054 217H882C878.686 217 876 214.314 876 211V199Z"
        fill="#1D2939" />
    <text fill="#98A2B3" xml:space="preserve" style="white-space: pre" font-family="Inter" font-size="14"
        font-weight="500" letter-spacing="0em">
        <tspan x="885.299" y="210.091">cache-control: no-cache</tspan>
    </text>
    <path
        d="M882 194H1054V192H882V194ZM1059 199V211H1061V199H1059ZM1054 216H882V218H1054V216ZM877 211V199H875V211H877ZM882 216C879.239 216 877 213.761 877 211H875C875 214.866 878.134 218 882 218V216ZM1059 211C1059 213.761 1056.76 216 1054 216V218C1057.87 218 1061 214.866 1061 211H1059ZM1054 194C1056.76 194 1059 196.239 1059 199H1061C1061 195.134 1057.87 192 1054 192V194ZM882 192C878.134 192 875 195.134 875 199H877C877 196.239 879.239 194 882 194V192Z"
        fill="#475467" />
    <path
        d="M66 99C66 92.9249 70.9249 88 77 88H117C123.075 88 128 92.9249 128 99C128 105.075 123.075 110 117 110H77C70.9249 110 66 105.075 66 99Z"
        fill="#05603A" />
    <circle cx="76" cy="99" r="3" fill="#6CE9A6" />
    <text fill="#6CE9A6" xml:space="preserve" style="white-space: pre" font-family="Inter" font-size="12"
        font-weight="500" letter-spacing="0em">
        <tspan x="86.2305" y="103.364">FIRST</tspan>
    </text>
    <text fill="#BFBFBF" xml:space="preserve" style="white-space: pre" font-family="Inter" font-size="12"
        font-weight="500" letter-spacing="0em">
        <tspan x="70" y="134.364">User first time access path `/`</tspan>
    </text>
    <defs>
        <filter id="filter0_d_34_824" x="277" y="60" width="182" height="128" filterUnits="userSpaceOnUse"
            color-interpolation-filters="sRGB">
            <feFlood flood-opacity="0" result="BackgroundImageFix" />
            <feColorMatrix in="SourceAlpha" type="matrix" values="0 0 0 0 0 0 0 0 0 0 0 0 0 0 0 0 0 0 127 0"
                result="hardAlpha" />
            <feOffset dy="4" />
            <feGaussianBlur stdDeviation="5" />
            <feComposite in2="hardAlpha" operator="out" />
            <feColorMatrix type="matrix" values="0 0 0 0 1 0 0 0 0 1 0 0 0 0 1 0 0 0 0.2 0" />
            <feBlend mode="normal" in2="BackgroundImageFix" result="effect1_dropShadow_34_824" />
            <feBlend mode="normal" in="SourceGraphic" in2="effect1_dropShadow_34_824" result="shape" />
        </filter>
        <filter id="filter1_d_34_824" x="647" y="60" width="223" height="128" filterUnits="userSpaceOnUse"
            color-interpolation-filters="sRGB">
            <feFlood flood-opacity="0" result="BackgroundImageFix" />
            <feColorMatrix in="SourceAlpha" type="matrix" values="0 0 0 0 0 0 0 0 0 0 0 0 0 0 0 0 0 0 127 0"
                result="hardAlpha" />
            <feOffset dy="4" />
            <feGaussianBlur stdDeviation="5" />
            <feComposite in2="hardAlpha" operator="out" />
            <feColorMatrix type="matrix" values="0 0 0 0 1 0 0 0 0 1 0 0 0 0 1 0 0 0 0.2 0" />
            <feBlend mode="normal" in2="BackgroundImageFix" result="effect1_dropShadow_34_824" />
            <feBlend mode="normal" in="SourceGraphic" in2="effect1_dropShadow_34_824" result="shape" />
        </filter>
        <filter id="filter2_d_34_824" x="1058" y="60" width="172" height="128" filterUnits="userSpaceOnUse"
            color-interpolation-filters="sRGB">
            <feFlood flood-opacity="0" result="BackgroundImageFix" />
            <feColorMatrix in="SourceAlpha" type="matrix" values="0 0 0 0 0 0 0 0 0 0 0 0 0 0 0 0 0 0 127 0"
                result="hardAlpha" />
            <feOffset dy="4" />
            <feGaussianBlur stdDeviation="5" />
            <feComposite in2="hardAlpha" operator="out" />
            <feColorMatrix type="matrix" values="0 0 0 0 1 0 0 0 0 1 0 0 0 0 1 0 0 0 0.2 0" />
            <feBlend mode="normal" in2="BackgroundImageFix" result="effect1_dropShadow_34_824" />
            <feBlend mode="normal" in="SourceGraphic" in2="effect1_dropShadow_34_824" result="shape" />
        </filter>
    </defs>
</svg>